<svg xmlns="http://www.w3.org/2000/svg" xmlns:xlink="http://www.w3.org/1999/xlink" width="500" zoomAndPan="magnify" viewBox="0 0 375 374.999991" height="500" preserveAspectRatio="xMidYMid meet" version="1.0"><defs><clipPath id="1950b6f9ba"><path d="M 175.511719 76.824219 L 346 76.824219 L 346 155.273438 L 175.511719 155.273438 Z M 175.511719 76.824219 " clip-rule="nonzero"/></clipPath><clipPath id="83c6ad6108"><path d="M 268.203125 109.910156 C 267.257812 115.800781 267.636719 121.996094 269.589844 128.0625 C 276.203125 148.621094 298.230469 159.929688 318.792969 153.3125 C 339.351562 146.703125 350.660156 124.671875 344.046875 104.109375 C 337.429688 83.546875 315.398438 72.242188 294.839844 78.855469 C 282.53125 82.816406 273.546875 92.304688 269.730469 103.691406 C 253.945312 104.390625 237.382812 108.484375 224.378906 112.574219 C 218.746094 101.535156 205.789062 95.890625 193.613281 99.808594 C 180.09375 104.160156 172.660156 118.644531 177.011719 132.164062 C 181.359375 145.683594 195.84375 153.117188 209.367188 148.765625 C 222.222656 144.632812 229.566406 131.328125 226.515625 118.40625 C 238.636719 114.621094 253.820312 110.832031 268.203125 109.910156 Z M 268.203125 109.910156 " clip-rule="nonzero"/></clipPath><clipPath id="73f172db88"><path d="M 268.203125 109.910156 C 267.257812 115.800781 267.636719 121.996094 269.589844 128.0625 C 276.203125 148.621094 298.230469 159.929688 318.792969 153.3125 C 339.351562 146.703125 350.660156 124.671875 344.046875 104.109375 C 337.429688 83.546875 315.398438 72.242188 294.839844 78.855469 C 282.53125 82.816406 273.546875 92.304688 269.730469 103.691406 C 253.945312 104.390625 237.382812 108.484375 224.378906 112.574219 C 218.746094 101.535156 205.789062 95.890625 193.613281 99.808594 C 180.09375 104.160156 172.660156 118.644531 177.011719 132.164062 C 181.359375 145.683594 195.84375 153.117188 209.367188 148.765625 C 222.222656 144.632812 229.566406 131.328125 226.515625 118.40625 C 238.636719 114.621094 253.820312 110.832031 268.203125 109.910156 " clip-rule="nonzero"/></clipPath><clipPath id="4357fa8588"><path d="M 172.71875 69.035156 L 171.082031 159.902344 L 350.601562 163.136719 L 352.238281 72.269531 Z M 172.71875 69.035156 " clip-rule="nonzero"/></clipPath><radialGradient gradientTransform="matrix(0.999826, 0.0179936, -0.0179932, 0.999851, -25.641772, 196.828615)" gradientUnits="userSpaceOnUse" r="314.812337" cx="0" id="b8d947294d" cy="0" fx="0" fy="0"><stop stop-opacity="1" stop-color="rgb(88.438416%, 11.759949%, 58.039856%)" offset="0"/><stop stop-opacity="1" stop-color="rgb(88.052368%, 11.759949%, 58.039856%)" offset="0.00390625"/><stop stop-opacity="1" stop-color="rgb(87.8479%, 11.94458%, 58.039856%)" offset="0.0078125"/><stop stop-opacity="1" stop-color="rgb(87.661743%, 12.14447%, 58.039856%)" offset="0.0117188"/><stop stop-opacity="1" stop-color="rgb(87.295532%, 12.159729%, 58.039856%)" offset="0.015625"/><stop stop-opacity="1" stop-color="rgb(87.060547%, 12.159729%, 58.039856%)" offset="0.0195312"/><stop stop-opacity="1" stop-color="rgb(86.825562%, 12.159729%, 58.039856%)" offset="0.0234375"/><stop stop-opacity="1" stop-color="rgb(86.439514%, 12.159729%, 58.039856%)" offset="0.0273438"/><stop stop-opacity="1" stop-color="rgb(86.061096%, 12.159729%, 58.032227%)" offset="0.03125"/><stop stop-opacity="1" stop-color="rgb(85.876465%, 12.159729%, 57.836914%)" offset="0.0351562"/><stop stop-opacity="1" stop-color="rgb(85.682678%, 12.159729%, 57.649231%)" offset="0.0390625"/><stop stop-opacity="1" stop-color="rgb(85.301208%, 12.159729%, 57.649231%)" offset="0.0429688"/><stop stop-opacity="1" stop-color="rgb(85.105896%, 12.159729%, 57.649231%)" offset="0.046875"/><stop stop-opacity="1" stop-color="rgb(84.919739%, 12.159729%, 57.649231%)" offset="0.0507812"/><stop stop-opacity="1" stop-color="rgb(84.544373%, 12.159729%, 57.649231%)" offset="0.0546875"/><stop stop-opacity="1" stop-color="rgb(84.329224%, 12.159729%, 57.649231%)" offset="0.0585938"/><stop stop-opacity="1" stop-color="rgb(84.094238%, 12.179565%, 57.649231%)" offset="0.0625"/><stop stop-opacity="1" stop-color="rgb(83.688354%, 12.373352%, 57.649231%)" offset="0.0664062"/><stop stop-opacity="1" stop-color="rgb(83.319092%, 12.548828%, 57.649231%)" offset="0.0703125"/><stop stop-opacity="1" stop-color="rgb(83.132935%, 12.548828%, 57.649231%)" offset="0.0742188"/><stop stop-opacity="1" stop-color="rgb(82.936096%, 12.548828%, 57.649231%)" offset="0.078125"/><stop stop-opacity="1" stop-color="rgb(82.550049%, 12.548828%, 57.649231%)" offset="0.0820312"/><stop stop-opacity="1" stop-color="rgb(82.351685%, 12.548828%, 57.649231%)" offset="0.0859375"/><stop stop-opacity="1" stop-color="rgb(82.165527%, 12.548828%, 57.649231%)" offset="0.0898438"/><stop stop-opacity="1" stop-color="rgb(81.793213%, 12.548828%, 57.649231%)" offset="0.09375"/><stop stop-opacity="1" stop-color="rgb(81.585693%, 12.548828%, 57.649231%)" offset="0.0976562"/><stop stop-opacity="1" stop-color="rgb(81.350708%, 12.548828%, 57.649231%)" offset="0.101562"/><stop stop-opacity="1" stop-color="rgb(80.937195%, 12.548828%, 57.649231%)" offset="0.105469"/><stop stop-opacity="1" stop-color="rgb(80.566406%, 12.548828%, 57.649231%)" offset="0.109375"/><stop stop-opacity="1" stop-color="rgb(80.380249%, 12.548828%, 57.649231%)" offset="0.113281"/><stop stop-opacity="1" stop-color="rgb(80.180359%, 12.553406%, 57.649231%)" offset="0.117188"/><stop stop-opacity="1" stop-color="rgb(79.798889%, 12.748718%, 57.649231%)" offset="0.121094"/><stop stop-opacity="1" stop-color="rgb(79.60968%, 12.939453%, 57.649231%)" offset="0.125"/><stop stop-opacity="1" stop-color="rgb(79.423523%, 12.939453%, 57.649231%)" offset="0.128906"/><stop stop-opacity="1" stop-color="rgb(79.042053%, 12.939453%, 57.649231%)" offset="0.132812"/><stop stop-opacity="1" stop-color="rgb(78.656006%, 12.939453%, 57.649231%)" offset="0.136719"/><stop stop-opacity="1" stop-color="rgb(78.44696%, 12.939453%, 57.649231%)" offset="0.140625"/><stop stop-opacity="1" stop-color="rgb(78.211975%, 12.939453%, 57.649231%)" offset="0.144531"/><stop stop-opacity="1" stop-color="rgb(77.822876%, 12.939453%, 57.649231%)" offset="0.148438"/><stop stop-opacity="1" stop-color="rgb(77.636719%, 12.939453%, 57.649231%)" offset="0.152344"/><stop stop-opacity="1" stop-color="rgb(77.429199%, 12.939453%, 57.649231%)" offset="0.15625"/><stop stop-opacity="1" stop-color="rgb(77.043152%, 12.939453%, 57.649231%)" offset="0.160156"/><stop stop-opacity="1" stop-color="rgb(76.661682%, 12.939453%, 57.649231%)" offset="0.164062"/><stop stop-opacity="1" stop-color="rgb(76.470947%, 12.939453%, 57.649231%)" offset="0.167969"/><stop stop-opacity="1" stop-color="rgb(76.28479%, 12.939453%, 57.649231%)" offset="0.171875"/><stop stop-opacity="1" stop-color="rgb(75.909424%, 13.117981%, 57.649231%)" offset="0.175781"/><stop stop-opacity="1" stop-color="rgb(75.704956%, 13.313293%, 57.649231%)" offset="0.179688"/><stop stop-opacity="1" stop-color="rgb(75.514221%, 13.328552%, 57.649231%)" offset="0.183594"/><stop stop-opacity="1" stop-color="rgb(75.119019%, 13.328552%, 57.649231%)" offset="0.1875"/><stop stop-opacity="1" stop-color="rgb(74.884033%, 13.328552%, 57.649231%)" offset="0.191406"/><stop stop-opacity="1" stop-color="rgb(74.67804%, 13.328552%, 57.649231%)" offset="0.195312"/><stop stop-opacity="1" stop-color="rgb(74.29657%, 13.328552%, 57.649231%)" offset="0.199219"/><stop stop-opacity="1" stop-color="rgb(73.918152%, 13.328552%, 57.649231%)" offset="0.203125"/><stop stop-opacity="1" stop-color="rgb(73.728943%, 13.328552%, 57.649231%)" offset="0.207031"/><stop stop-opacity="1" stop-color="rgb(73.536682%, 13.328552%, 57.649231%)" offset="0.210938"/><stop stop-opacity="1" stop-color="rgb(73.153687%, 13.328552%, 57.649231%)" offset="0.214844"/><stop stop-opacity="1" stop-color="rgb(72.950745%, 13.328552%, 57.649231%)" offset="0.21875"/><stop stop-opacity="1" stop-color="rgb(72.764587%, 13.328552%, 57.649231%)" offset="0.222656"/><stop stop-opacity="1" stop-color="rgb(72.3526%, 13.528442%, 57.649231%)" offset="0.226562"/><stop stop-opacity="1" stop-color="rgb(71.936035%, 13.729858%, 57.649231%)" offset="0.230469"/><stop stop-opacity="1" stop-color="rgb(71.7453%, 13.729858%, 57.649231%)" offset="0.234375"/><stop stop-opacity="1" stop-color="rgb(71.540833%, 13.729858%, 57.649231%)" offset="0.238281"/><stop stop-opacity="1" stop-color="rgb(71.165466%, 13.729858%, 57.649231%)" offset="0.242188"/><stop stop-opacity="1" stop-color="rgb(70.979309%, 13.729858%, 57.649231%)" offset="0.246094"/><stop stop-opacity="1" stop-color="rgb(70.788574%, 13.729858%, 57.649231%)" offset="0.25"/><stop stop-opacity="1" stop-color="rgb(70.407104%, 13.729858%, 57.649231%)" offset="0.253906"/><stop stop-opacity="1" stop-color="rgb(70.027161%, 13.729858%, 57.649231%)" offset="0.257812"/><stop stop-opacity="1" stop-color="rgb(69.645691%, 13.729858%, 57.649231%)" offset="0.265625"/><stop stop-opacity="1" stop-color="rgb(69.236755%, 13.729858%, 57.649231%)" offset="0.269531"/><stop stop-opacity="1" stop-color="rgb(69.00177%, 13.746643%, 57.649231%)" offset="0.273438"/><stop stop-opacity="1" stop-color="rgb(68.79425%, 13.94043%, 57.649231%)" offset="0.277344"/><stop stop-opacity="1" stop-color="rgb(68.418884%, 14.118958%, 57.649231%)" offset="0.28125"/><stop stop-opacity="1" stop-color="rgb(68.037415%, 14.118958%, 57.649231%)" offset="0.289062"/><stop stop-opacity="1" stop-color="rgb(67.651367%, 14.118958%, 57.649231%)" offset="0.292969"/><stop stop-opacity="1" stop-color="rgb(67.271423%, 14.118958%, 57.649231%)" offset="0.296875"/><stop stop-opacity="1" stop-color="rgb(66.894531%, 14.118958%, 57.649231%)" offset="0.300781"/><stop stop-opacity="1" stop-color="rgb(66.513062%, 14.118958%, 57.649231%)" offset="0.308594"/><stop stop-opacity="1" stop-color="rgb(66.273499%, 14.118958%, 57.649231%)" offset="0.3125"/><stop stop-opacity="1" stop-color="rgb(66.038513%, 14.134216%, 57.649231%)" offset="0.316406"/><stop stop-opacity="1" stop-color="rgb(65.658569%, 14.329529%, 57.649231%)" offset="0.320312"/><stop stop-opacity="1" stop-color="rgb(65.281677%, 14.509583%, 57.649231%)" offset="0.324219"/><stop stop-opacity="1" stop-color="rgb(64.904785%, 14.509583%, 57.649231%)" offset="0.332031"/><stop stop-opacity="1" stop-color="rgb(64.520264%, 14.509583%, 57.649231%)" offset="0.335938"/><stop stop-opacity="1" stop-color="rgb(64.138794%, 14.509583%, 57.649231%)" offset="0.339844"/><stop stop-opacity="1" stop-color="rgb(63.761902%, 14.509583%, 57.649231%)" offset="0.347656"/><stop stop-opacity="1" stop-color="rgb(63.526917%, 14.509583%, 57.449341%)" offset="0.351562"/><stop stop-opacity="1" stop-color="rgb(63.293457%, 14.509583%, 57.249451%)" offset="0.355469"/><stop stop-opacity="1" stop-color="rgb(62.911987%, 14.509583%, 57.249451%)" offset="0.359375"/><stop stop-opacity="1" stop-color="rgb(62.530518%, 14.703369%, 57.249451%)" offset="0.363281"/><stop stop-opacity="1" stop-color="rgb(62.149048%, 14.898682%, 57.249451%)" offset="0.371094"/><stop stop-opacity="1" stop-color="rgb(61.764526%, 14.898682%, 57.249451%)" offset="0.375"/><stop stop-opacity="1" stop-color="rgb(61.387634%, 14.898682%, 57.249451%)" offset="0.382812"/><stop stop-opacity="1" stop-color="rgb(61.010742%, 14.898682%, 57.249451%)" offset="0.386719"/><stop stop-opacity="1" stop-color="rgb(60.626221%, 14.898682%, 57.249451%)" offset="0.390625"/><stop stop-opacity="1" stop-color="rgb(60.391235%, 14.898682%, 57.249451%)" offset="0.394531"/><stop stop-opacity="1" stop-color="rgb(60.15625%, 14.898682%, 57.249451%)" offset="0.398438"/><stop stop-opacity="1" stop-color="rgb(59.779358%, 14.906311%, 57.249451%)" offset="0.402344"/><stop stop-opacity="1" stop-color="rgb(59.403992%, 15.101624%, 57.249451%)" offset="0.410156"/><stop stop-opacity="1" stop-color="rgb(59.017944%, 15.289307%, 57.249451%)" offset="0.414062"/><stop stop-opacity="1" stop-color="rgb(58.631897%, 15.289307%, 57.249451%)" offset="0.417969"/><stop stop-opacity="1" stop-color="rgb(58.255005%, 15.289307%, 57.249451%)" offset="0.421875"/><stop stop-opacity="1" stop-color="rgb(57.879639%, 15.289307%, 57.249451%)" offset="0.429688"/><stop stop-opacity="1" stop-color="rgb(57.669067%, 15.289307%, 57.249451%)" offset="0.433594"/><stop stop-opacity="1" stop-color="rgb(57.429504%, 15.289307%, 57.249451%)" offset="0.4375"/><stop stop-opacity="1" stop-color="rgb(57.019043%, 15.289307%, 57.249451%)" offset="0.441406"/><stop stop-opacity="1" stop-color="rgb(56.642151%, 15.29541%, 57.249451%)" offset="0.445312"/><stop stop-opacity="1" stop-color="rgb(56.266785%, 15.4953%, 57.249451%)" offset="0.453125"/><stop stop-opacity="1" stop-color="rgb(55.882263%, 15.689087%, 57.249451%)" offset="0.457031"/><stop stop-opacity="1" stop-color="rgb(55.500793%, 15.689087%, 57.249451%)" offset="0.464844"/><stop stop-opacity="1" stop-color="rgb(55.123901%, 15.689087%, 57.249451%)" offset="0.46875"/><stop stop-opacity="1" stop-color="rgb(54.742432%, 15.689087%, 57.249451%)" offset="0.472656"/><stop stop-opacity="1" stop-color="rgb(54.507446%, 15.689087%, 57.249451%)" offset="0.476562"/><stop stop-opacity="1" stop-color="rgb(54.272461%, 15.689087%, 57.249451%)" offset="0.480469"/><stop stop-opacity="1" stop-color="rgb(53.897095%, 15.698242%, 57.249451%)" offset="0.484375"/><stop stop-opacity="1" stop-color="rgb(53.515625%, 15.893555%, 57.249451%)" offset="0.492188"/><stop stop-opacity="1" stop-color="rgb(53.129578%, 16.079712%, 57.249451%)" offset="0.496094"/><stop stop-opacity="1" stop-color="rgb(52.752686%, 16.079712%, 57.249451%)" offset="0.503906"/><stop stop-opacity="1" stop-color="rgb(52.377319%, 16.079712%, 57.249451%)" offset="0.507812"/><stop stop-opacity="1" stop-color="rgb(51.991272%, 16.079712%, 57.249451%)" offset="0.511719"/><stop stop-opacity="1" stop-color="rgb(51.777649%, 16.079712%, 57.249451%)" offset="0.515625"/><stop stop-opacity="1" stop-color="rgb(51.542664%, 16.079712%, 57.249451%)" offset="0.519531"/><stop stop-opacity="1" stop-color="rgb(51.152039%, 16.079712%, 57.249451%)" offset="0.523438"/><stop stop-opacity="1" stop-color="rgb(50.967407%, 16.091919%, 57.249451%)" offset="0.527344"/><stop stop-opacity="1" stop-color="rgb(50.764465%, 16.285706%, 57.249451%)" offset="0.53125"/><stop stop-opacity="1" stop-color="rgb(50.382996%, 16.468811%, 57.249451%)" offset="0.535156"/><stop stop-opacity="1" stop-color="rgb(49.996948%, 16.468811%, 57.249451%)" offset="0.539062"/><stop stop-opacity="1" stop-color="rgb(49.80011%, 16.468811%, 57.249451%)" offset="0.542969"/><stop stop-opacity="1" stop-color="rgb(49.613953%, 16.468811%, 57.249451%)" offset="0.546875"/><stop stop-opacity="1" stop-color="rgb(49.240112%, 16.468811%, 57.249451%)" offset="0.550781"/><stop stop-opacity="1" stop-color="rgb(49.034119%, 16.468811%, 57.249451%)" offset="0.554688"/><stop stop-opacity="1" stop-color="rgb(48.847961%, 16.468811%, 57.249451%)" offset="0.558594"/><stop stop-opacity="1" stop-color="rgb(48.4375%, 16.468811%, 57.249451%)" offset="0.5625"/><stop stop-opacity="1" stop-color="rgb(48.017883%, 16.48407%, 57.249451%)" offset="0.566406"/><stop stop-opacity="1" stop-color="rgb(47.828674%, 16.679382%, 57.249451%)" offset="0.570312"/><stop stop-opacity="1" stop-color="rgb(47.627258%, 16.859436%, 57.249451%)" offset="0.574219"/><stop stop-opacity="1" stop-color="rgb(47.247314%, 16.859436%, 57.249451%)" offset="0.578125"/><stop stop-opacity="1" stop-color="rgb(47.059631%, 16.859436%, 57.249451%)" offset="0.582031"/><stop stop-opacity="1" stop-color="rgb(46.871948%, 16.859436%, 57.249451%)" offset="0.585938"/><stop stop-opacity="1" stop-color="rgb(46.488953%, 16.859436%, 57.249451%)" offset="0.589844"/><stop stop-opacity="1" stop-color="rgb(46.102905%, 16.859436%, 57.249451%)" offset="0.59375"/><stop stop-opacity="1" stop-color="rgb(45.895386%, 16.859436%, 57.249451%)" offset="0.597656"/><stop stop-opacity="1" stop-color="rgb(45.6604%, 16.859436%, 57.249451%)" offset="0.601562"/><stop stop-opacity="1" stop-color="rgb(45.271301%, 16.877747%, 57.249451%)" offset="0.605469"/><stop stop-opacity="1" stop-color="rgb(45.085144%, 17.071533%, 57.249451%)" offset="0.609375"/><stop stop-opacity="1" stop-color="rgb(44.880676%, 17.248535%, 57.249451%)" offset="0.613281"/><stop stop-opacity="1" stop-color="rgb(44.494629%, 17.248535%, 57.249451%)" offset="0.617188"/><stop stop-opacity="1" stop-color="rgb(44.110107%, 17.248535%, 57.249451%)" offset="0.621094"/><stop stop-opacity="1" stop-color="rgb(43.919373%, 17.248535%, 57.249451%)" offset="0.625"/><stop stop-opacity="1" stop-color="rgb(43.733215%, 17.248535%, 57.249451%)" offset="0.628906"/><stop stop-opacity="1" stop-color="rgb(43.356323%, 17.248535%, 57.249451%)" offset="0.632812"/><stop stop-opacity="1" stop-color="rgb(42.980957%, 17.248535%, 57.249451%)" offset="0.636719"/><stop stop-opacity="1" stop-color="rgb(42.550659%, 17.448425%, 57.249451%)" offset="0.644531"/><stop stop-opacity="1" stop-color="rgb(42.120361%, 17.649841%, 57.249451%)" offset="0.648438"/><stop stop-opacity="1" stop-color="rgb(41.743469%, 17.649841%, 57.249451%)" offset="0.65625"/><stop stop-opacity="1" stop-color="rgb(41.366577%, 17.649841%, 57.249451%)" offset="0.660156"/><stop stop-opacity="1" stop-color="rgb(40.985107%, 17.649841%, 57.249451%)" offset="0.667969"/><stop stop-opacity="1" stop-color="rgb(40.600586%, 17.649841%, 57.249451%)" offset="0.671875"/><stop stop-opacity="1" stop-color="rgb(40.219116%, 17.649841%, 57.249451%)" offset="0.675781"/><stop stop-opacity="1" stop-color="rgb(39.84375%, 17.843628%, 57.249451%)" offset="0.679688"/><stop stop-opacity="1" stop-color="rgb(39.437866%, 18.03894%, 57.249451%)" offset="0.6875"/><stop stop-opacity="1" stop-color="rgb(39.202881%, 18.03894%, 57.249451%)" offset="0.691406"/><stop stop-opacity="1" stop-color="rgb(38.99231%, 18.03894%, 57.249451%)" offset="0.695312"/><stop stop-opacity="1" stop-color="rgb(38.607788%, 18.03894%, 57.249451%)" offset="0.699219"/><stop stop-opacity="1" stop-color="rgb(38.227844%, 18.03894%, 57.249451%)" offset="0.703125"/><stop stop-opacity="1" stop-color="rgb(37.850952%, 18.03894%, 57.249451%)" offset="0.710938"/><stop stop-opacity="1" stop-color="rgb(37.469482%, 18.222046%, 57.249451%)" offset="0.714844"/><stop stop-opacity="1" stop-color="rgb(37.088013%, 18.417358%, 57.249451%)" offset="0.71875"/><stop stop-opacity="1" stop-color="rgb(36.662292%, 18.429565%, 57.249451%)" offset="0.726562"/><stop stop-opacity="1" stop-color="rgb(36.238098%, 18.429565%, 57.249451%)" offset="0.730469"/><stop stop-opacity="1" stop-color="rgb(35.861206%, 18.429565%, 57.249451%)" offset="0.738281"/><stop stop-opacity="1" stop-color="rgb(35.479736%, 18.429565%, 57.249451%)" offset="0.742188"/><stop stop-opacity="1" stop-color="rgb(35.098267%, 18.618774%, 57.249451%)" offset="0.75"/><stop stop-opacity="1" stop-color="rgb(34.718323%, 18.814087%, 57.249451%)" offset="0.753906"/><stop stop-opacity="1" stop-color="rgb(34.336853%, 18.818665%, 57.249451%)" offset="0.757812"/><stop stop-opacity="1" stop-color="rgb(34.132385%, 18.818665%, 57.249451%)" offset="0.761719"/><stop stop-opacity="1" stop-color="rgb(33.946228%, 18.818665%, 57.249451%)" offset="0.765625"/><stop stop-opacity="1" stop-color="rgb(33.552551%, 18.818665%, 57.249451%)" offset="0.769531"/><stop stop-opacity="1" stop-color="rgb(33.312988%, 18.818665%, 57.249451%)" offset="0.773438"/><stop stop-opacity="1" stop-color="rgb(33.105469%, 18.830872%, 57.249451%)" offset="0.777344"/><stop stop-opacity="1" stop-color="rgb(32.723999%, 19.032288%, 57.249451%)" offset="0.78125"/><stop stop-opacity="1" stop-color="rgb(32.345581%, 19.219971%, 57.249451%)" offset="0.785156"/><stop stop-opacity="1" stop-color="rgb(32.159424%, 19.219971%, 57.249451%)" offset="0.789062"/><stop stop-opacity="1" stop-color="rgb(31.965637%, 19.219971%, 57.249451%)" offset="0.792969"/><stop stop-opacity="1" stop-color="rgb(31.581116%, 19.219971%, 57.249451%)" offset="0.796875"/><stop stop-opacity="1" stop-color="rgb(31.3797%, 19.219971%, 57.249451%)" offset="0.800781"/><stop stop-opacity="1" stop-color="rgb(31.193542%, 19.219971%, 57.249451%)" offset="0.804688"/><stop stop-opacity="1" stop-color="rgb(30.828857%, 19.219971%, 57.249451%)" offset="0.808594"/><stop stop-opacity="1" stop-color="rgb(30.418396%, 19.238281%, 57.249451%)" offset="0.8125"/><stop stop-opacity="1" stop-color="rgb(30.183411%, 19.433594%, 57.249451%)" offset="0.816406"/><stop stop-opacity="1" stop-color="rgb(29.972839%, 19.60907%, 57.249451%)" offset="0.820312"/><stop stop-opacity="1" stop-color="rgb(29.59137%, 19.60907%, 57.249451%)" offset="0.824219"/><stop stop-opacity="1" stop-color="rgb(29.216003%, 19.60907%, 57.249451%)" offset="0.832031"/><stop stop-opacity="1" stop-color="rgb(28.834534%, 19.60907%, 57.249451%)" offset="0.835938"/><stop stop-opacity="1" stop-color="rgb(28.453064%, 19.60907%, 57.249451%)" offset="0.839844"/><stop stop-opacity="1" stop-color="rgb(28.07312%, 19.78302%, 57.249451%)" offset="0.84375"/><stop stop-opacity="1" stop-color="rgb(27.66571%, 19.978333%, 57.249451%)" offset="0.851562"/><stop stop-opacity="1" stop-color="rgb(27.430725%, 19.999695%, 57.249451%)" offset="0.855469"/><stop stop-opacity="1" stop-color="rgb(27.22168%, 19.999695%, 57.249451%)" offset="0.859375"/><stop stop-opacity="1" stop-color="rgb(26.841736%, 19.999695%, 57.249451%)" offset="0.863281"/><stop stop-opacity="1" stop-color="rgb(26.460266%, 19.999695%, 57.249451%)" offset="0.867188"/><stop stop-opacity="1" stop-color="rgb(26.078796%, 19.999695%, 57.249451%)" offset="0.875"/><stop stop-opacity="1" stop-color="rgb(25.697327%, 20.184326%, 57.249451%)" offset="0.878906"/><stop stop-opacity="1" stop-color="rgb(25.498962%, 20.379639%, 57.249451%)" offset="0.882812"/><stop stop-opacity="1" stop-color="rgb(25.312805%, 20.388794%, 57.249451%)" offset="0.886719"/><stop stop-opacity="1" stop-color="rgb(24.945068%, 20.388794%, 57.249451%)" offset="0.890625"/><stop stop-opacity="1" stop-color="rgb(24.531555%, 20.388794%, 57.249451%)" offset="0.894531"/><stop stop-opacity="1" stop-color="rgb(24.291992%, 20.388794%, 57.249451%)" offset="0.898438"/><stop stop-opacity="1" stop-color="rgb(24.084473%, 20.388794%, 57.249451%)" offset="0.902344"/><stop stop-opacity="1" stop-color="rgb(23.712158%, 20.396423%, 57.249451%)" offset="0.90625"/><stop stop-opacity="1" stop-color="rgb(23.335266%, 20.591736%, 57.249451%)" offset="0.910156"/><stop stop-opacity="1" stop-color="rgb(22.952271%, 20.779419%, 57.249451%)" offset="0.917969"/><stop stop-opacity="1" stop-color="rgb(22.566223%, 20.779419%, 57.249451%)" offset="0.921875"/><stop stop-opacity="1" stop-color="rgb(22.184753%, 20.779419%, 57.249451%)" offset="0.925781"/><stop stop-opacity="1" stop-color="rgb(21.807861%, 20.779419%, 57.249451%)" offset="0.933594"/><stop stop-opacity="1" stop-color="rgb(21.398926%, 20.979309%, 57.249451%)" offset="0.9375"/><stop stop-opacity="1" stop-color="rgb(21.16394%, 21.179199%, 57.249451%)" offset="0.941406"/><stop stop-opacity="1" stop-color="rgb(20.953369%, 21.179199%, 57.249451%)" offset="0.945312"/><stop stop-opacity="1" stop-color="rgb(20.573425%, 21.179199%, 57.249451%)" offset="0.949219"/><stop stop-opacity="1" stop-color="rgb(20.387268%, 21.179199%, 57.249451%)" offset="0.953125"/><stop stop-opacity="1" stop-color="rgb(20.195007%, 21.179199%, 57.249451%)" offset="0.957031"/><stop stop-opacity="1" stop-color="rgb(19.815063%, 21.179199%, 57.249451%)" offset="0.960938"/><stop stop-opacity="1" stop-color="rgb(19.433594%, 21.179199%, 57.249451%)" offset="0.964844"/><stop stop-opacity="1" stop-color="rgb(19.052124%, 21.374512%, 57.249451%)" offset="0.96875"/><stop stop-opacity="1" stop-color="rgb(18.64624%, 21.569824%, 57.249451%)" offset="0.976562"/><stop stop-opacity="1" stop-color="rgb(18.411255%, 21.569824%, 57.249451%)" offset="0.980469"/><stop stop-opacity="1" stop-color="rgb(18.202209%, 21.569824%, 57.249451%)" offset="0.984375"/><stop stop-opacity="1" stop-color="rgb(17.82074%, 21.569824%, 57.249451%)" offset="0.988281"/><stop stop-opacity="1" stop-color="rgb(17.43927%, 21.569824%, 57.249451%)" offset="0.992188"/><stop stop-opacity="1" stop-color="rgb(17.248535%, 21.569824%, 57.249451%)" offset="1"/></radialGradient><clipPath id="3f08b1c454"><path d="M 223.683594 142.109375 L 348.460938 142.109375 L 348.460938 294.265625 L 223.683594 294.265625 Z M 223.683594 142.109375 " clip-rule="nonzero"/></clipPath><clipPath id="080d9065dd"><path d="M 295.234375 218.570312 C 289.664062 220.695312 284.488281 224.121094 280.210938 228.84375 C 265.710938 244.855469 266.933594 269.582031 282.941406 284.082031 C 298.949219 298.582031 323.683594 297.359375 338.179688 281.351562 C 352.679688 265.34375 351.457031 240.609375 335.445312 226.113281 C 325.863281 217.433594 313.15625 214.390625 301.386719 216.78125 C 292.886719 203.460938 281.0625 191.167969 271.019531 181.945312 C 277.761719 171.546875 276.167969 157.507812 266.691406 148.921875 C 256.164062 139.386719 239.902344 140.191406 230.367188 150.71875 C 220.835938 161.246094 221.640625 177.507812 232.167969 187.039062 C 242.175781 196.105469 257.371094 195.816406 267.035156 186.710938 C 276.375 195.316406 287.25 206.574219 295.234375 218.570312 Z M 295.234375 218.570312 " clip-rule="nonzero"/></clipPath><clipPath id="44be39ce3e"><path d="M 295.234375 218.570312 C 289.664062 220.695312 284.488281 224.121094 280.210938 228.84375 C 265.710938 244.855469 266.933594 269.582031 282.941406 284.082031 C 298.949219 298.582031 323.683594 297.359375 338.179688 281.351562 C 352.679688 265.34375 351.457031 240.609375 335.445312 226.113281 C 325.863281 217.433594 313.15625 214.390625 301.386719 216.78125 C 292.886719 203.460938 281.0625 191.167969 271.019531 181.945312 C 277.761719 171.546875 276.167969 157.507812 266.691406 148.921875 C 256.164062 139.386719 239.902344 140.191406 230.367188 150.71875 C 220.835938 161.246094 221.640625 177.507812 232.167969 187.039062 C 242.175781 196.105469 257.371094 195.816406 267.035156 186.710938 C 276.375 195.316406 287.25 206.574219 295.234375 218.570312 " clip-rule="nonzero"/></clipPath><clipPath id="68ebb88d0c"><path d="M 220.875 137.011719 L 217.964844 298.53125 L 352.636719 300.957031 L 355.546875 139.441406 Z M 220.875 137.011719 " clip-rule="nonzero"/></clipPath><clipPath id="a1c66885ce"><path d="M 150.769531 205.550781 L 261.328125 205.550781 L 261.328125 365.761719 L 150.769531 365.761719 Z M 150.769531 205.550781 " clip-rule="nonzero"/></clipPath><clipPath id="3323fc9cc1"><path d="M 214.652344 296.3125 C 210.023438 292.542969 204.472656 289.777344 198.242188 288.433594 C 177.128906 283.882812 156.324219 297.304688 151.769531 318.421875 C 147.21875 339.535156 160.644531 360.339844 181.757812 364.890625 C 202.871094 369.441406 223.675781 356.015625 228.226562 334.90625 C 230.953125 322.265625 227.230469 309.738281 219.277344 300.742188 C 226.5625 286.722656 231.300781 270.335938 234.261719 257.023438 C 246.632812 257.664062 258 249.265625 260.695312 236.761719 C 263.6875 222.878906 254.859375 209.199219 240.980469 206.207031 C 227.097656 203.210938 213.414062 212.039062 210.421875 225.921875 C 207.578125 239.125 215.425781 252.136719 228.140625 255.957031 C 225.359375 268.347656 221.050781 283.394531 214.652344 296.3125 Z M 214.652344 296.3125 " clip-rule="nonzero"/></clipPath><clipPath id="d6be742567"><path d="M 214.652344 296.3125 C 210.023438 292.542969 204.472656 289.777344 198.242188 288.433594 C 177.128906 283.882812 156.324219 297.304688 151.769531 318.421875 C 147.21875 339.535156 160.644531 360.339844 181.757812 364.890625 C 202.871094 369.441406 223.675781 356.015625 228.226562 334.90625 C 230.953125 322.265625 227.230469 309.738281 219.277344 300.742188 C 226.5625 286.722656 231.300781 270.335938 234.261719 257.023438 C 246.632812 257.664062 258 249.265625 260.695312 236.761719 C 263.6875 222.878906 254.859375 209.199219 240.980469 206.207031 C 227.097656 203.210938 213.414062 212.039062 210.421875 225.921875 C 207.578125 239.125 215.425781 252.136719 228.140625 255.957031 C 225.359375 268.347656 221.050781 283.394531 214.652344 296.3125 " clip-rule="nonzero"/></clipPath><clipPath id="c949d8ea02"><path d="M 147.257812 201.113281 L 144.226562 369.390625 L 263.652344 371.542969 L 266.683594 203.265625 Z M 147.257812 201.113281 " clip-rule="nonzero"/></clipPath><clipPath id="03299c9c5a"><path d="M 29.152344 220.03125 L 199.730469 220.03125 L 199.730469 298.476562 L 29.152344 298.476562 Z M 29.152344 220.03125 " clip-rule="nonzero"/></clipPath><clipPath id="febe7c50bc"><path d="M 107.039062 265.394531 C 107.984375 259.503906 107.605469 253.308594 105.652344 247.238281 C 99.039062 226.679688 77.007812 215.375 56.449219 221.988281 C 35.890625 228.601562 24.582031 250.632812 31.199219 271.191406 C 37.8125 291.753906 59.839844 303.0625 80.402344 296.445312 C 92.710938 292.484375 101.699219 283 105.511719 271.613281 C 121.296875 270.910156 137.859375 266.820312 150.863281 262.730469 C 156.496094 273.765625 169.453125 279.410156 181.628906 275.496094 C 195.148438 271.140625 202.582031 256.660156 198.230469 243.140625 C 193.882812 229.621094 179.398438 222.183594 165.878906 226.535156 C 153.023438 230.671875 145.675781 243.976562 148.730469 256.894531 C 136.605469 260.683594 121.421875 264.472656 107.039062 265.394531 Z M 107.039062 265.394531 " clip-rule="nonzero"/></clipPath><clipPath id="c00fc84e59"><path d="M 107.039062 265.394531 C 107.984375 259.503906 107.605469 253.308594 105.652344 247.238281 C 99.039062 226.679688 77.007812 215.375 56.449219 221.988281 C 35.890625 228.601562 24.582031 250.632812 31.199219 271.191406 C 37.8125 291.753906 59.839844 303.0625 80.402344 296.445312 C 92.710938 292.484375 101.699219 283 105.511719 271.613281 C 121.296875 270.910156 137.859375 266.820312 150.863281 262.730469 C 156.496094 273.765625 169.453125 279.410156 181.628906 275.496094 C 195.148438 271.140625 202.582031 256.660156 198.230469 243.140625 C 193.882812 229.621094 179.398438 222.183594 165.878906 226.535156 C 153.023438 230.671875 145.675781 243.976562 148.730469 256.894531 C 136.605469 260.683594 121.421875 264.472656 107.039062 265.394531 " clip-rule="nonzero"/></clipPath><clipPath id="392c059a73"><path d="M 24.640625 212.167969 L 23.003906 303.03125 L 202.523438 306.265625 L 204.160156 215.402344 Z M 24.640625 212.167969 " clip-rule="nonzero"/></clipPath><clipPath id="0f3f46e6d7"><path d="M 26.78125 81.035156 L 151.558594 81.035156 L 151.558594 233.191406 L 26.78125 233.191406 Z M 26.78125 81.035156 " clip-rule="nonzero"/></clipPath><clipPath id="2898d54266"><path d="M 80.007812 156.734375 C 85.582031 154.609375 90.753906 151.183594 95.03125 146.457031 C 109.53125 130.449219 108.308594 105.71875 92.300781 91.21875 C 76.292969 76.71875 51.5625 77.945312 37.0625 93.953125 C 22.5625 109.960938 23.785156 134.691406 39.796875 149.191406 C 49.378906 157.871094 62.089844 160.910156 73.859375 158.519531 C 82.355469 171.839844 94.179688 184.136719 104.226562 193.359375 C 97.484375 203.753906 99.074219 217.796875 108.554688 226.382812 C 119.078125 235.914062 135.339844 235.109375 144.875 224.585938 C 154.40625 214.058594 153.601562 197.796875 143.078125 188.261719 C 133.066406 179.195312 117.871094 179.484375 108.207031 188.589844 C 98.867188 179.984375 87.996094 168.730469 80.007812 156.734375 Z M 80.007812 156.734375 " clip-rule="nonzero"/></clipPath><clipPath id="8963a8f437"><path d="M 80.007812 156.734375 C 85.582031 154.609375 90.753906 151.183594 95.03125 146.457031 C 109.53125 130.449219 108.308594 105.71875 92.300781 91.21875 C 76.292969 76.71875 51.5625 77.945312 37.0625 93.953125 C 22.5625 109.960938 23.785156 134.691406 39.796875 149.191406 C 49.378906 157.871094 62.089844 160.910156 73.859375 158.519531 C 82.355469 171.839844 94.179688 184.136719 104.226562 193.359375 C 97.484375 203.753906 99.074219 217.796875 108.554688 226.382812 C 119.078125 235.914062 135.339844 235.109375 144.875 224.585938 C 154.40625 214.058594 153.601562 197.796875 143.078125 188.261719 C 133.066406 179.195312 117.871094 179.484375 108.207031 188.589844 C 98.867188 179.984375 87.996094 168.730469 80.007812 156.734375 " clip-rule="nonzero"/></clipPath><clipPath id="66fe7aef24"><path d="M 22.605469 74.34375 L 19.695312 235.863281 L 154.363281 238.289062 L 157.273438 76.773438 Z M 22.605469 74.34375 " clip-rule="nonzero"/></clipPath><clipPath id="112df4d17c"><path d="M 113.914062 9.511719 L 224.476562 9.511719 L 224.476562 169.75 L 113.914062 169.75 Z M 113.914062 9.511719 " clip-rule="nonzero"/></clipPath><clipPath id="b2ec1bb1df"><path d="M 160.589844 78.992188 C 165.214844 82.757812 170.769531 85.527344 177 86.867188 C 198.113281 91.421875 218.921875 77.996094 223.472656 56.882812 C 228.023438 35.769531 214.597656 14.960938 193.488281 10.410156 C 172.371094 5.859375 151.566406 19.285156 147.015625 40.398438 C 144.289062 53.039062 148.011719 65.5625 155.96875 74.5625 C 148.679688 88.578125 143.941406 104.96875 140.980469 118.277344 C 128.609375 117.636719 117.242188 126.035156 114.546875 138.539062 C 111.554688 152.425781 120.382812 166.105469 134.265625 169.097656 C 148.144531 172.089844 161.828125 163.261719 164.820312 149.382812 C 167.667969 136.175781 159.816406 123.164062 147.101562 119.34375 C 149.882812 106.953125 154.195312 91.910156 160.589844 78.992188 Z M 160.589844 78.992188 " clip-rule="nonzero"/></clipPath><clipPath id="4138f5b2ce"><path d="M 160.589844 78.992188 C 165.214844 82.757812 170.769531 85.527344 177 86.871094 C 198.113281 91.421875 218.921875 77.996094 223.46875 56.882812 C 228.023438 35.769531 214.597656 14.964844 193.488281 10.410156 C 172.371094 5.859375 151.566406 19.285156 147.015625 40.398438 C 144.289062 53.039062 148.011719 65.5625 155.96875 74.5625 C 148.679688 88.582031 143.941406 104.96875 140.980469 118.28125 C 128.609375 117.636719 117.242188 126.035156 114.546875 138.539062 C 111.554688 152.425781 120.382812 166.105469 134.265625 169.097656 C 148.144531 172.089844 161.828125 163.265625 164.820312 149.378906 C 167.667969 136.175781 159.816406 123.164062 147.101562 119.34375 C 149.882812 106.953125 154.195312 91.910156 160.589844 78.992188 " clip-rule="nonzero"/></clipPath><clipPath id="4d1db4094d"><path d="M 111.589844 3.761719 L 108.558594 172.035156 L 227.984375 174.1875 L 231.015625 5.914062 Z M 111.589844 3.761719 " clip-rule="nonzero"/></clipPath><clipPath id="b08ace392e"><path d="M 249 45 L 275.542969 45 L 275.542969 71.824219 L 249 71.824219 Z M 249 45 " clip-rule="nonzero"/></clipPath><clipPath id="75908f2dba"><path d="M 275.515625 58.351562 C 275.515625 65.660156 269.59375 71.582031 262.285156 71.582031 C 254.980469 71.582031 249.054688 65.660156 249.054688 58.351562 C 249.054688 51.042969 254.980469 45.121094 262.285156 45.121094 C 269.59375 45.121094 275.515625 51.042969 275.515625 58.351562 Z M 275.515625 58.351562 " clip-rule="nonzero"/></clipPath><clipPath id="c630681198"><path d="M 275.515625 58.351562 C 275.515625 65.660156 269.59375 71.582031 262.285156 71.582031 C 254.980469 71.582031 249.054688 65.660156 249.054688 58.351562 C 249.054688 51.042969 254.980469 45.121094 262.285156 45.121094 C 269.59375 45.121094 275.515625 51.042969 275.515625 58.351562 " clip-rule="nonzero"/></clipPath><clipPath id="bf8bf0ee1d"><path d="M 249.0625 44.644531 L 248.578125 71.574219 L 275.507812 72.0625 L 275.992188 45.128906 Z M 249.0625 44.644531 " clip-rule="nonzero"/></clipPath><clipPath id="3bd951b1c2"><path d="M 99.699219 45 L 126.285156 45 L 126.285156 71.824219 L 99.699219 71.824219 Z M 99.699219 45 " clip-rule="nonzero"/></clipPath><clipPath id="989d133f57"><path d="M 126.1875 58.351562 C 126.1875 65.660156 120.265625 71.582031 112.957031 71.582031 C 105.648438 71.582031 99.726562 65.660156 99.726562 58.351562 C 99.726562 51.042969 105.648438 45.121094 112.957031 45.121094 C 120.265625 45.121094 126.1875 51.042969 126.1875 58.351562 Z M 126.1875 58.351562 " clip-rule="nonzero"/></clipPath><clipPath id="01711d4763"><path d="M 126.1875 58.351562 C 126.1875 65.660156 120.265625 71.582031 112.957031 71.582031 C 105.648438 71.582031 99.726562 65.660156 99.726562 58.351562 C 99.726562 51.042969 105.648438 45.121094 112.957031 45.121094 C 120.265625 45.121094 126.1875 51.042969 126.1875 58.351562 " clip-rule="nonzero"/></clipPath><clipPath id="d3d20697ed"><path d="M 99.734375 44.644531 L 99.25 71.574219 L 126.179688 72.0625 L 126.664062 45.128906 Z M 99.734375 44.644531 " clip-rule="nonzero"/></clipPath><clipPath id="f2bdbb5bd8"><path d="M 105.226562 303.480469 L 132 303.480469 L 132 330.332031 L 105.226562 330.332031 Z M 105.226562 303.480469 " clip-rule="nonzero"/></clipPath><clipPath id="bc20f07165"><path d="M 131.859375 316.949219 C 131.859375 324.257812 125.933594 330.183594 118.628906 330.183594 C 111.320312 330.183594 105.394531 324.257812 105.394531 316.949219 C 105.394531 309.640625 111.320312 303.71875 118.628906 303.71875 C 125.933594 303.71875 131.859375 309.640625 131.859375 316.949219 Z M 131.859375 316.949219 " clip-rule="nonzero"/></clipPath><clipPath id="c8a4e133c7"><path d="M 131.859375 316.949219 C 131.859375 324.257812 125.933594 330.183594 118.628906 330.183594 C 111.320312 330.183594 105.394531 324.257812 105.394531 316.949219 C 105.394531 309.640625 111.320312 303.71875 118.628906 303.71875 C 125.933594 303.71875 131.859375 309.640625 131.859375 316.949219 " clip-rule="nonzero"/></clipPath><clipPath id="2750ff8e1b"><path d="M 105.40625 303.242188 L 104.917969 330.175781 L 131.851562 330.660156 L 132.335938 303.726562 Z M 105.40625 303.242188 " clip-rule="nonzero"/></clipPath><clipPath id="f8a8527dd3"><path d="M 243.164062 303.480469 L 270 303.480469 L 270 330.332031 L 243.164062 330.332031 Z M 243.164062 303.480469 " clip-rule="nonzero"/></clipPath><clipPath id="a8069309a6"><path d="M 269.847656 316.949219 C 269.847656 324.257812 263.921875 330.183594 256.617188 330.183594 C 249.308594 330.183594 243.382812 324.257812 243.382812 316.949219 C 243.382812 309.640625 249.308594 303.71875 256.617188 303.71875 C 263.921875 303.71875 269.847656 309.640625 269.847656 316.949219 Z M 269.847656 316.949219 " clip-rule="nonzero"/></clipPath><clipPath id="6e263475d6"><path d="M 269.847656 316.949219 C 269.847656 324.257812 263.921875 330.183594 256.617188 330.183594 C 249.308594 330.183594 243.382812 324.257812 243.382812 316.949219 C 243.382812 309.640625 249.308594 303.71875 256.617188 303.71875 C 263.921875 303.71875 269.847656 309.640625 269.847656 316.949219 " clip-rule="nonzero"/></clipPath><clipPath id="49f5e9c4b6"><path d="M 243.390625 303.242188 L 242.90625 330.175781 L 269.839844 330.660156 L 270.324219 303.726562 Z M 243.390625 303.242188 " clip-rule="nonzero"/></clipPath><clipPath id="030a6d9ce7"><path d="M 32.835938 174.226562 L 59.425781 174.226562 L 59.425781 201 L 32.835938 201 Z M 32.835938 174.226562 " clip-rule="nonzero"/></clipPath><clipPath id="d782bc11a9"><path d="M 59.316406 187.652344 C 59.316406 194.960938 53.390625 200.882812 46.085938 200.882812 C 38.777344 200.882812 32.851562 194.960938 32.851562 187.652344 C 32.851562 180.34375 38.777344 174.417969 46.085938 174.417969 C 53.390625 174.417969 59.316406 180.34375 59.316406 187.652344 Z M 59.316406 187.652344 " clip-rule="nonzero"/></clipPath><clipPath id="aae5585bd5"><path d="M 59.316406 187.652344 C 59.316406 194.960938 53.390625 200.882812 46.085938 200.882812 C 38.777344 200.882812 32.851562 194.960938 32.851562 187.652344 C 32.851562 180.34375 38.777344 174.417969 46.085938 174.417969 C 53.390625 174.417969 59.316406 180.34375 59.316406 187.652344 " clip-rule="nonzero"/></clipPath><clipPath id="e6bb247c2d"><path d="M 32.863281 173.941406 L 32.375 200.875 L 59.308594 201.363281 L 59.792969 174.425781 Z M 32.863281 173.941406 " clip-rule="nonzero"/></clipPath><clipPath id="c94a2e2de7"><path d="M 315.820312 174.226562 L 342.40625 174.226562 L 342.40625 201 L 315.820312 201 Z M 315.820312 174.226562 " clip-rule="nonzero"/></clipPath><clipPath id="a8fa653a12"><path d="M 342.390625 187.652344 C 342.390625 194.960938 336.46875 200.882812 329.15625 200.882812 C 321.851562 200.882812 315.925781 194.960938 315.925781 187.652344 C 315.925781 180.34375 321.851562 174.417969 329.15625 174.417969 C 336.46875 174.417969 342.390625 180.34375 342.390625 187.652344 Z M 342.390625 187.652344 " clip-rule="nonzero"/></clipPath><clipPath id="323ed75dc2"><path d="M 342.390625 187.652344 C 342.390625 194.960938 336.46875 200.882812 329.15625 200.882812 C 321.851562 200.882812 315.925781 194.960938 315.925781 187.652344 C 315.925781 180.34375 321.851562 174.417969 329.15625 174.417969 C 336.46875 174.417969 342.390625 180.34375 342.390625 187.652344 " clip-rule="nonzero"/></clipPath><clipPath id="b7e8fa1156"><path d="M 315.933594 173.941406 L 315.449219 200.875 L 342.382812 201.363281 L 342.867188 174.425781 Z M 315.933594 173.941406 " clip-rule="nonzero"/></clipPath><clipPath id="cf35788fbf"><path d="M 47.871094 17.222656 L 326.871094 17.222656 L 326.871094 296 L 47.871094 296 Z M 47.871094 17.222656 " clip-rule="nonzero"/></clipPath><clipPath id="d7a91028ff"><path d="M 81.1875 141.011719 C 82.253906 140.847656 83.320312 140.929688 84.386719 141.09375 L 97.019531 105.054688 C 94.3125 103.988281 92.261719 101.527344 91.769531 98.40625 C 91.03125 93.808594 94.230469 89.460938 98.90625 88.800781 C 101.367188 88.390625 103.746094 89.128906 105.550781 90.609375 L 130.570312 68.609375 C 129.832031 67.542969 129.339844 66.390625 129.175781 64.996094 C 128.4375 60.398438 131.636719 56.050781 136.308594 55.3125 C 140.328125 54.734375 144.101562 57.035156 145.496094 60.644531 L 186.101562 50.140625 C 186.921875 46.117188 190.121094 42.832031 194.386719 42.257812 C 194.796875 42.175781 195.125 42.175781 195.535156 42.175781 L 195.371094 24.9375 C 193.484375 24.609375 192.089844 23.050781 192.089844 21.082031 C 192.089844 18.945312 193.8125 17.222656 195.945312 17.222656 C 198.078125 17.222656 199.800781 18.945312 199.800781 21.082031 C 199.800781 22.804688 198.652344 24.28125 197.09375 24.773438 L 197.257812 42.175781 C 201.523438 42.75 205.046875 46.117188 205.703125 50.550781 C 205.867188 51.78125 205.867188 52.929688 205.621094 54.078125 L 256.152344 73.535156 C 257.792969 70.085938 261.074219 67.542969 265.09375 66.886719 C 267.882812 66.476562 270.507812 67.050781 272.804688 68.28125 L 283.382812 48.578125 C 282.070312 47.59375 281.25 46.035156 281.25 44.3125 C 281.25 41.273438 283.710938 38.8125 286.746094 38.8125 C 289.78125 38.8125 292.242188 41.273438 292.242188 44.3125 C 292.242188 47.347656 289.78125 49.8125 286.746094 49.8125 C 286.089844 49.8125 285.515625 49.730469 284.941406 49.484375 L 274.035156 69.59375 C 276.328125 71.398438 277.96875 74.027344 278.460938 77.226562 C 279.199219 82.070312 276.902344 86.585938 273.132812 89.046875 L 287.15625 115.398438 C 287.894531 115.070312 288.714844 114.90625 289.535156 114.742188 C 295.03125 113.921875 300.117188 117.699219 300.9375 123.195312 C 301.757812 128.449219 298.230469 133.457031 293.0625 134.523438 L 296.753906 166.210938 C 299.789062 167.523438 302.085938 170.398438 302.660156 173.925781 C 303.480469 179.425781 299.707031 184.515625 294.210938 185.335938 C 293.800781 185.417969 293.390625 185.417969 292.980469 185.417969 L 286.910156 201.753906 C 291.175781 203.644531 294.375 207.664062 295.113281 212.589844 C 296.261719 220.390625 290.929688 227.613281 283.136719 228.84375 C 282.316406 229.007812 281.414062 229.007812 280.59375 229.007812 L 279.363281 258.886719 C 281.578125 259.296875 283.300781 261.269531 283.300781 263.566406 C 283.300781 266.195312 281.167969 268.328125 278.542969 268.328125 C 275.917969 268.328125 273.789062 266.195312 273.789062 263.566406 C 273.789062 261.269531 275.425781 259.296875 277.640625 258.886719 L 278.871094 228.84375 C 275.507812 228.351562 272.476562 226.628906 270.261719 224.082031 L 235.726562 250.269531 C 236.464844 251.417969 236.957031 252.8125 237.203125 254.292969 C 238.105469 260.039062 234.167969 265.375 228.425781 266.195312 C 227.195312 266.359375 225.964844 266.359375 224.734375 266.113281 L 224.652344 282.121094 C 226.785156 283.105469 228.34375 284.828125 228.34375 287.867188 C 228.34375 290.902344 225.308594 294.269531 221.945312 294.269531 C 218.582031 294.269531 216.039062 291.886719 215.628906 288.769531 L 189.546875 288.769531 C 189.136719 292.789062 185.691406 295.910156 181.589844 295.910156 C 177.488281 295.910156 174.125 292.789062 173.632812 288.769531 L 154.683594 287.535156 C 154.273438 290.65625 151.730469 293.035156 148.367188 293.035156 C 145.003906 293.035156 141.96875 289.589844 141.96875 286.632812 C 141.96875 283.679688 143.28125 282.203125 145.167969 281.050781 L 139.097656 261.84375 L 139.015625 261.84375 C 132.867188 262.746094 127.125 258.558594 126.222656 252.402344 C 125.730469 249.121094 126.714844 246 128.601562 243.621094 L 94.640625 210.457031 C 93.738281 211.113281 92.671875 211.605469 91.523438 211.769531 C 90.539062 211.933594 89.636719 211.851562 88.734375 211.605469 L 74.296875 236.558594 C 76.101562 237.957031 77.332031 240.089844 77.332031 242.554688 C 77.332031 242.882812 77.332031 243.292969 77.25 243.621094 L 94.394531 248.136719 C 95.132812 246.574219 96.691406 245.589844 98.496094 245.589844 C 101.039062 245.589844 103.089844 247.640625 103.089844 250.1875 C 103.089844 252.730469 101.039062 254.785156 98.496094 254.785156 C 95.953125 254.785156 93.902344 252.730469 93.902344 250.1875 C 93.902344 250.105469 93.902344 250.023438 93.902344 249.941406 L 76.757812 245.425781 C 75.691406 248.21875 72.902344 250.1875 69.785156 250.1875 C 65.601562 250.1875 62.242188 246.820312 62.242188 242.636719 C 62.242188 238.449219 65.601562 235.082031 69.785156 235.082031 C 70.851562 235.082031 71.835938 235.328125 72.820312 235.738281 L 87.175781 211.03125 C 85.453125 210.046875 84.222656 208.320312 83.894531 206.269531 C 83.402344 202.90625 85.453125 199.785156 88.652344 198.800781 L 82.746094 157.921875 C 78.480469 158.085938 74.707031 155.046875 74.050781 150.695312 C 73.3125 146.019531 76.511719 141.667969 81.1875 141.011719 Z M 251.722656 266.03125 C 250.082031 266.03125 248.769531 267.34375 248.769531 268.984375 C 248.769531 270.625 250.082031 271.941406 251.722656 271.941406 C 253.363281 271.941406 254.675781 270.625 254.675781 268.984375 C 254.675781 267.425781 253.363281 266.03125 251.722656 266.03125 Z M 246.636719 37.90625 C 244.339844 37.90625 242.535156 39.714844 242.535156 42.011719 C 242.535156 44.3125 244.339844 46.117188 246.636719 46.117188 C 248.933594 46.117188 250.738281 44.3125 250.738281 42.011719 C 250.738281 39.796875 248.933594 37.90625 246.636719 37.90625 Z M 320.050781 121.390625 C 323.824219 121.390625 326.859375 124.429688 326.859375 128.203125 C 326.859375 131.980469 323.824219 135.019531 320.050781 135.019531 C 316.277344 135.019531 313.242188 131.980469 313.242188 128.203125 C 313.242188 124.511719 316.277344 121.390625 320.050781 121.390625 Z M 55.1875 131.488281 C 51.167969 131.488281 47.886719 134.773438 47.886719 138.792969 C 47.886719 142.816406 51.167969 146.101562 55.1875 146.101562 C 59.207031 146.101562 62.488281 142.816406 62.488281 138.792969 C 62.488281 134.691406 59.207031 131.488281 55.1875 131.488281 Z M 121.300781 23.789062 C 117.527344 23.789062 114.492188 26.828125 114.492188 30.601562 C 114.492188 34.378906 117.527344 37.414062 121.300781 37.414062 C 125.074219 37.414062 128.109375 34.378906 128.109375 30.601562 C 128.109375 26.828125 125.074219 23.789062 121.300781 23.789062 Z M 76.347656 65.734375 C 73.476562 65.734375 71.097656 68.117188 71.097656 70.988281 C 71.097656 73.863281 73.476562 76.242188 76.347656 76.242188 C 79.21875 76.242188 81.597656 73.863281 81.597656 70.988281 C 81.597656 68.117188 79.300781 65.734375 76.347656 65.734375 Z M 313.242188 200.113281 C 314.882812 200.113281 316.195312 201.425781 316.195312 203.070312 C 316.195312 204.710938 314.882812 206.023438 313.242188 206.023438 C 311.601562 206.023438 310.289062 204.710938 310.289062 203.070312 C 310.289062 201.425781 311.601562 200.113281 313.242188 200.113281 Z M 95.050781 199.128906 L 95.789062 199.539062 L 95.296875 200.441406 C 95.789062 200.933594 96.199219 201.507812 96.527344 202.164062 L 133.601562 189.769531 C 133.441406 189.195312 133.359375 188.621094 133.277344 188.046875 C 132.785156 184.925781 133.277344 181.890625 134.503906 179.179688 L 112.851562 167.6875 Z M 223.09375 265.539062 C 221.535156 264.878906 220.058594 263.894531 218.992188 262.664062 L 187.167969 282.121094 C 188.480469 283.351562 189.382812 285.074219 189.546875 286.960938 L 215.628906 286.960938 C 216.039062 283.84375 220.140625 281.460938 221.945312 281.460938 C 223.75 281.460938 222.683594 281.460938 223.011719 281.542969 Z M 217.925781 261.269531 C 217.597656 260.777344 217.351562 260.203125 217.105469 259.546875 L 191.925781 257.410156 L 191.925781 257.492188 C 192.582031 261.84375 189.628906 265.867188 185.28125 266.523438 C 180.933594 267.179688 176.667969 262.582031 176.257812 259.875 C 175.847656 257.164062 176.175781 257.65625 176.421875 256.589844 L 147.382812 255.851562 C 146.890625 256.835938 146.234375 257.738281 145.496094 258.558594 L 177.570312 280.96875 C 178.71875 280.3125 180.03125 279.902344 181.507812 279.902344 C 182.984375 279.902344 184.378906 280.3125 185.609375 281.050781 Z M 144.265625 259.628906 C 143.28125 260.367188 142.132812 260.941406 140.984375 261.351562 L 146.890625 280.3125 C 147.382812 280.230469 146.5625 280.148438 148.449219 280.148438 C 150.335938 280.148438 154.355469 282.53125 154.765625 285.648438 L 173.714844 286.878906 C 173.960938 284.910156 174.863281 283.105469 176.257812 281.871094 Z M 145.824219 62.699219 C 146.070312 64.257812 145.824219 65.816406 145.25 67.132812 L 178.308594 85.355469 C 179.949219 81.90625 183.230469 79.363281 187.25 78.707031 C 187.90625 78.625 188.480469 78.542969 189.136719 78.542969 L 192.746094 61.714844 C 189.21875 60.644531 186.511719 57.609375 185.9375 53.667969 C 185.855469 53.175781 185.855469 52.683594 185.855469 52.273438 Z M 144.347656 68.773438 C 143.035156 70.578125 141.066406 71.890625 138.6875 72.304688 C 136.0625 72.714844 133.519531 71.808594 131.71875 70.167969 L 106.78125 92.003906 C 107.683594 93.152344 108.257812 94.464844 108.503906 95.945312 C 108.75 97.667969 108.503906 99.308594 107.847656 100.707031 L 130.488281 114.25 C 132.046875 112.117188 134.339844 110.636719 137.128906 110.226562 C 140.246094 109.734375 143.199219 110.71875 145.332031 112.609375 L 178.0625 95.207031 C 177.652344 94.300781 177.40625 93.316406 177.242188 92.25 C 176.996094 90.445312 177.078125 88.71875 177.570312 87.078125 Z M 106.863281 102.347656 C 105.550781 104.070312 103.664062 105.21875 101.367188 105.628906 C 100.464844 105.792969 99.644531 105.792969 98.824219 105.628906 L 86.109375 141.75 C 88.570312 142.898438 90.375 145.277344 90.785156 148.152344 C 91.03125 150.039062 90.703125 151.847656 89.882812 153.40625 L 112.113281 165.226562 L 132.867188 128.613281 C 130.652344 127.054688 129.09375 124.675781 128.601562 121.800781 C 128.273438 119.667969 128.601562 117.699219 129.503906 115.890625 Z M 88.816406 154.964844 C 87.75 156.195312 86.273438 157.179688 84.550781 157.59375 L 90.457031 198.472656 C 91.359375 198.472656 92.179688 198.636719 92.917969 198.964844 L 111.128906 166.867188 Z M 97.101562 203.972656 C 97.101562 204.054688 97.101562 204.136719 97.101562 204.21875 C 97.347656 206.023438 96.855469 207.828125 95.871094 209.144531 L 129.996094 242.222656 C 131.554688 240.828125 133.523438 239.925781 135.734375 239.597656 C 135.980469 239.515625 136.308594 239.515625 136.554688 239.515625 L 144.59375 200.851562 C 139.917969 199.621094 136.0625 196.171875 134.175781 191.578125 Z M 138.523438 239.515625 C 142.460938 239.84375 145.90625 242.304688 147.628906 245.835938 L 191.351562 210.867188 C 190.777344 209.964844 190.367188 208.898438 190.203125 207.746094 C 190.039062 206.761719 190.121094 205.777344 190.285156 204.875 L 161.082031 195.269531 C 158.703125 198.390625 155.175781 200.605469 151.074219 201.179688 C 149.515625 201.425781 147.957031 201.425781 146.480469 201.179688 Z M 148.285156 247.722656 C 148.367188 248.136719 148.53125 248.628906 148.53125 249.039062 C 148.777344 250.761719 148.613281 252.484375 148.121094 254.046875 L 177.160156 254.785156 C 178.308594 252.730469 181.261719 251.007812 182.902344 250.761719 C 184.542969 250.515625 184.460938 250.679688 185.199219 250.761719 L 195.125 214.070312 C 194.058594 213.65625 193.15625 213 192.335938 212.261719 Z M 187.085938 251.335938 C 189.054688 252.15625 190.613281 253.632812 191.433594 255.605469 L 216.613281 257.738281 C 216.613281 257.65625 216.53125 257.492188 216.53125 257.410156 C 216.039062 253.964844 217.269531 250.597656 219.566406 248.382812 L 201.277344 214.152344 C 200.703125 214.398438 200.128906 214.5625 199.472656 214.644531 C 198.652344 214.808594 197.832031 214.726562 197.011719 214.644531 Z M 221.042969 247.148438 C 222.273438 246.328125 223.75 245.753906 225.308594 245.507812 C 228.917969 244.933594 232.363281 246.328125 234.578125 248.792969 L 269.113281 222.605469 C 268.210938 221.210938 267.554688 219.734375 267.144531 218.089844 L 206.113281 208.652344 C 205.621094 210.539062 204.472656 212.097656 202.917969 213.246094 Z M 266.898438 216.039062 C 266.570312 212.671875 267.472656 209.472656 269.195312 206.761719 L 248.441406 190.917969 L 206.277344 204.792969 C 206.277344 204.957031 206.359375 205.121094 206.359375 205.203125 C 206.441406 205.695312 206.441406 206.1875 206.441406 206.761719 Z M 270.34375 205.285156 C 272.476562 202.824219 275.507812 201.097656 278.953125 200.523438 C 281.085938 200.195312 283.21875 200.359375 285.1875 200.933594 L 291.09375 185.171875 C 287.730469 184.597656 284.941406 182.382812 283.546875 179.261719 L 250.574219 190.179688 Z M 282.972656 177.621094 C 282.890625 177.375 282.890625 177.128906 282.808594 176.882812 C 281.988281 171.382812 285.761719 166.292969 291.257812 165.472656 C 292.488281 165.308594 293.636719 165.308594 294.785156 165.554688 L 291.175781 134.691406 C 287.648438 134.773438 284.367188 132.964844 282.480469 130.09375 L 224.242188 160.054688 C 224.652344 160.875 224.898438 161.777344 225.0625 162.761719 C 225.472656 165.226562 224.898438 167.6875 223.667969 169.660156 L 248.851562 188.867188 Z M 281.660156 128.367188 C 281.414062 127.628906 281.167969 126.890625 281.085938 126.152344 C 280.511719 122.128906 282.316406 118.355469 285.515625 116.300781 L 271.492188 89.953125 C 270.589844 90.363281 269.523438 90.691406 268.539062 90.773438 C 264.765625 91.347656 261.15625 90.117188 258.613281 87.652344 L 236.300781 104.808594 L 258.777344 112.035156 C 259.515625 110.636719 260.910156 109.570312 262.632812 109.324219 C 265.503906 108.914062 268.210938 110.882812 268.621094 113.757812 C 269.03125 116.628906 267.0625 119.339844 264.191406 119.75 C 262.796875 119.914062 261.484375 119.585938 260.417969 118.929688 L 222.683594 157.675781 C 222.929688 157.921875 223.09375 158.167969 223.257812 158.414062 Z M 259.105469 117.617188 C 259.023438 117.535156 258.941406 117.367188 258.859375 117.285156 L 186.757812 145.195312 C 186.839844 145.359375 186.839844 145.523438 186.839844 145.769531 C 187.414062 149.546875 184.789062 152.996094 181.097656 153.570312 C 179.457031 153.816406 177.816406 153.488281 176.503906 152.667969 L 159.195312 174.171875 C 160.671875 175.488281 161.902344 177.128906 162.722656 178.933594 L 204.964844 166.210938 C 204.964844 166.046875 204.882812 165.882812 204.882812 165.71875 C 204.0625 160.136719 207.835938 154.964844 213.414062 154.144531 C 216.367188 153.734375 219.15625 154.554688 221.289062 156.277344 Z M 258.203125 115.5625 C 258.203125 115.480469 258.203125 115.398438 258.203125 115.316406 C 258.121094 114.824219 258.121094 114.332031 258.203125 113.839844 L 234.496094 106.207031 L 186.101562 143.390625 L 186.101562 143.472656 Z M 175.109375 151.515625 C 174.207031 150.53125 173.550781 149.300781 173.304688 147.824219 C 172.730469 144.046875 175.355469 140.601562 179.046875 140.023438 C 179.375 139.941406 179.703125 139.941406 180.03125 139.941406 L 185.035156 101.773438 C 182.574219 100.871094 180.359375 99.144531 178.964844 96.929688 L 146.644531 114.085938 C 147.628906 115.398438 148.367188 117.039062 148.613281 118.765625 C 149.433594 124.347656 145.660156 129.519531 140.082031 130.339844 C 139.753906 130.421875 139.425781 130.421875 139.097656 130.421875 L 146.644531 170.234375 C 150.664062 169.742188 154.601562 170.808594 157.71875 173.023438 Z M 137.210938 130.339844 C 136.226562 130.175781 135.324219 129.929688 134.421875 129.519531 L 113.671875 166.046875 L 135.242188 177.539062 C 137.292969 174.171875 140.65625 171.546875 144.757812 170.5625 Z M 162.148438 193.628906 L 190.777344 203.070312 C 191.925781 200.6875 194.140625 198.800781 197.011719 198.390625 C 198.078125 198.226562 199.0625 198.308594 200.046875 198.472656 L 209.066406 172.53125 C 207.507812 171.464844 206.277344 169.90625 205.539062 168.097656 L 163.460938 180.742188 C 163.789062 181.5625 163.953125 182.464844 164.117188 183.449219 C 164.691406 187.0625 163.953125 190.671875 162.148438 193.628906 Z M 210.707031 173.515625 L 201.769531 199.128906 C 203.492188 199.949219 204.800781 201.34375 205.621094 203.070312 L 246.554688 189.605469 L 222.355469 171.136719 C 220.878906 172.777344 218.746094 173.925781 216.367188 174.339844 C 214.480469 174.585938 212.511719 174.253906 210.707031 173.515625 Z M 255.25 75.585938 L 204.882812 56.132812 C 203.574219 59.25 200.785156 61.550781 197.175781 62.125 C 196.273438 62.289062 195.371094 62.289062 194.550781 62.207031 L 191.023438 78.789062 C 195.945312 79.609375 200.046875 83.550781 200.785156 88.800781 C 201.03125 90.363281 200.949219 91.921875 200.621094 93.316406 L 234.085938 104.152344 L 257.21875 86.339844 C 255.988281 84.78125 255.167969 82.890625 254.839844 80.839844 C 254.675781 78.953125 254.757812 77.144531 255.25 75.585938 Z M 186.921875 102.183594 L 181.917969 140.105469 C 183.066406 140.4375 184.132812 141.011719 184.953125 141.832031 L 232.28125 105.382812 L 200.046875 94.960938 C 198.488281 98.734375 195.125 101.527344 190.777344 102.183594 C 189.464844 102.511719 188.152344 102.429688 186.921875 102.183594 Z M 186.921875 102.183594 " clip-rule="evenodd"/></clipPath><linearGradient x1="344.645086" gradientTransform="matrix(0.820267, 0, 0, 0.820878, 47.885608, 17.38614)" y1="334.593398" x2="-0.985998" gradientUnits="userSpaceOnUse" y2="0.821058" id="b48b59cc99"><stop stop-opacity="1" stop-color="rgb(0%, 72.158813%, 70.979309%)" offset="0"/><stop stop-opacity="1" stop-color="rgb(0%, 72.158813%, 70.979309%)" offset="0.0625"/><stop stop-opacity="1" stop-color="rgb(0%, 72.158813%, 70.979309%)" offset="0.09375"/><stop stop-opacity="1" stop-color="rgb(0%, 72.158813%, 70.979309%)" offset="0.109375"/><stop stop-opacity="1" stop-color="rgb(0.0442505%, 72.161865%, 70.944214%)" offset="0.117187"/><stop stop-opacity="1" stop-color="rgb(0.692749%, 72.216797%, 70.458984%)" offset="0.121094"/><stop stop-opacity="1" stop-color="rgb(1.296997%, 72.268677%, 70.00885%)" offset="0.125"/><stop stop-opacity="1" stop-color="rgb(1.899719%, 72.319031%, 69.558716%)" offset="0.128906"/><stop stop-opacity="1" stop-color="rgb(2.503967%, 72.370911%, 69.108582%)" offset="0.132812"/><stop stop-opacity="1" stop-color="rgb(3.106689%, 72.421265%, 68.656921%)" offset="0.136719"/><stop stop-opacity="1" stop-color="rgb(3.710938%, 72.471619%, 68.206787%)" offset="0.140625"/><stop stop-opacity="1" stop-color="rgb(4.31366%, 72.521973%, 67.755127%)" offset="0.144531"/><stop stop-opacity="1" stop-color="rgb(4.917908%, 72.573853%, 67.304993%)" offset="0.148438"/><stop stop-opacity="1" stop-color="rgb(5.52063%, 72.624207%, 66.853333%)" offset="0.152344"/><stop stop-opacity="1" stop-color="rgb(6.124878%, 72.676086%, 66.403198%)" offset="0.15625"/><stop stop-opacity="1" stop-color="rgb(6.7276%, 72.72644%, 65.951538%)" offset="0.160156"/><stop stop-opacity="1" stop-color="rgb(7.331848%, 72.77832%, 65.501404%)" offset="0.164062"/><stop stop-opacity="1" stop-color="rgb(7.93457%, 72.828674%, 65.05127%)" offset="0.167969"/><stop stop-opacity="1" stop-color="rgb(8.538818%, 72.879028%, 64.601135%)" offset="0.171875"/><stop stop-opacity="1" stop-color="rgb(9.141541%, 72.929382%, 64.149475%)" offset="0.175781"/><stop stop-opacity="1" stop-color="rgb(9.744263%, 72.981262%, 63.699341%)" offset="0.179688"/><stop stop-opacity="1" stop-color="rgb(10.346985%, 73.031616%, 63.247681%)" offset="0.183594"/><stop stop-opacity="1" stop-color="rgb(10.951233%, 73.083496%, 62.797546%)" offset="0.1875"/><stop stop-opacity="1" stop-color="rgb(11.553955%, 73.13385%, 62.345886%)" offset="0.191406"/><stop stop-opacity="1" stop-color="rgb(12.158203%, 73.184204%, 61.895752%)" offset="0.195312"/><stop stop-opacity="1" stop-color="rgb(12.760925%, 73.234558%, 61.445618%)" offset="0.199219"/><stop stop-opacity="1" stop-color="rgb(13.365173%, 73.286438%, 60.995483%)" offset="0.203125"/><stop stop-opacity="1" stop-color="rgb(13.967896%, 73.336792%, 60.543823%)" offset="0.207031"/><stop stop-opacity="1" stop-color="rgb(14.572144%, 73.388672%, 60.093689%)" offset="0.210937"/><stop stop-opacity="1" stop-color="rgb(15.174866%, 73.439026%, 59.642029%)" offset="0.214844"/><stop stop-opacity="1" stop-color="rgb(15.779114%, 73.48938%, 59.191895%)" offset="0.21875"/><stop stop-opacity="1" stop-color="rgb(16.381836%, 73.539734%, 58.740234%)" offset="0.222656"/><stop stop-opacity="1" stop-color="rgb(16.986084%, 73.591614%, 58.2901%)" offset="0.226562"/><stop stop-opacity="1" stop-color="rgb(17.588806%, 73.641968%, 57.83844%)" offset="0.230469"/><stop stop-opacity="1" stop-color="rgb(18.191528%, 73.693848%, 57.388306%)" offset="0.234375"/><stop stop-opacity="1" stop-color="rgb(18.79425%, 73.744202%, 56.938171%)" offset="0.238281"/><stop stop-opacity="1" stop-color="rgb(19.398499%, 73.794556%, 56.488037%)" offset="0.242188"/><stop stop-opacity="1" stop-color="rgb(20.001221%, 73.84491%, 56.036377%)" offset="0.246094"/><stop stop-opacity="1" stop-color="rgb(20.605469%, 73.89679%, 55.586243%)" offset="0.25"/><stop stop-opacity="1" stop-color="rgb(21.208191%, 73.947144%, 55.134583%)" offset="0.253906"/><stop stop-opacity="1" stop-color="rgb(21.812439%, 73.999023%, 54.684448%)" offset="0.257812"/><stop stop-opacity="1" stop-color="rgb(22.415161%, 74.049377%, 54.232788%)" offset="0.261719"/><stop stop-opacity="1" stop-color="rgb(23.019409%, 74.101257%, 53.782654%)" offset="0.265625"/><stop stop-opacity="1" stop-color="rgb(23.622131%, 74.151611%, 53.33252%)" offset="0.269531"/><stop stop-opacity="1" stop-color="rgb(24.226379%, 74.201965%, 52.882385%)" offset="0.273438"/><stop stop-opacity="1" stop-color="rgb(24.829102%, 74.252319%, 52.430725%)" offset="0.277344"/><stop stop-opacity="1" stop-color="rgb(25.43335%, 74.304199%, 51.980591%)" offset="0.28125"/><stop stop-opacity="1" stop-color="rgb(26.036072%, 74.354553%, 51.528931%)" offset="0.285156"/><stop stop-opacity="1" stop-color="rgb(26.64032%, 74.406433%, 51.078796%)" offset="0.289062"/><stop stop-opacity="1" stop-color="rgb(27.243042%, 74.456787%, 50.627136%)" offset="0.292969"/><stop stop-opacity="1" stop-color="rgb(27.845764%, 74.507141%, 50.177002%)" offset="0.296875"/><stop stop-opacity="1" stop-color="rgb(28.448486%, 74.557495%, 49.725342%)" offset="0.300781"/><stop stop-opacity="1" stop-color="rgb(29.052734%, 74.609375%, 49.275208%)" offset="0.304688"/><stop stop-opacity="1" stop-color="rgb(29.655457%, 74.659729%, 48.825073%)" offset="0.308594"/><stop stop-opacity="1" stop-color="rgb(30.259705%, 74.711609%, 48.374939%)" offset="0.3125"/><stop stop-opacity="1" stop-color="rgb(30.862427%, 74.761963%, 47.923279%)" offset="0.316406"/><stop stop-opacity="1" stop-color="rgb(31.466675%, 74.812317%, 47.473145%)" offset="0.320312"/><stop stop-opacity="1" stop-color="rgb(32.069397%, 74.862671%, 47.021484%)" offset="0.324219"/><stop stop-opacity="1" stop-color="rgb(32.673645%, 74.914551%, 46.57135%)" offset="0.328125"/><stop stop-opacity="1" stop-color="rgb(33.276367%, 74.964905%, 46.11969%)" offset="0.332031"/><stop stop-opacity="1" stop-color="rgb(33.880615%, 75.016785%, 45.669556%)" offset="0.335938"/><stop stop-opacity="1" stop-color="rgb(34.483337%, 75.067139%, 45.217896%)" offset="0.339844"/><stop stop-opacity="1" stop-color="rgb(35.087585%, 75.119019%, 44.767761%)" offset="0.34375"/><stop stop-opacity="1" stop-color="rgb(35.690308%, 75.169373%, 44.317627%)" offset="0.347656"/><stop stop-opacity="1" stop-color="rgb(36.294556%, 75.219727%, 43.867493%)" offset="0.351562"/><stop stop-opacity="1" stop-color="rgb(36.897278%, 75.270081%, 43.415833%)" offset="0.355469"/><stop stop-opacity="1" stop-color="rgb(37.5%, 75.32196%, 42.965698%)" offset="0.359375"/><stop stop-opacity="1" stop-color="rgb(38.102722%, 75.372314%, 42.514038%)" offset="0.363281"/><stop stop-opacity="1" stop-color="rgb(38.70697%, 75.424194%, 42.063904%)" offset="0.367187"/><stop stop-opacity="1" stop-color="rgb(39.309692%, 75.474548%, 41.612244%)" offset="0.371094"/><stop stop-opacity="1" stop-color="rgb(39.91394%, 75.524902%, 41.162109%)" offset="0.375"/><stop stop-opacity="1" stop-color="rgb(40.516663%, 75.575256%, 40.711975%)" offset="0.378906"/><stop stop-opacity="1" stop-color="rgb(41.120911%, 75.627136%, 40.261841%)" offset="0.382813"/><stop stop-opacity="1" stop-color="rgb(41.723633%, 75.67749%, 39.810181%)" offset="0.386719"/><stop stop-opacity="1" stop-color="rgb(42.327881%, 75.72937%, 39.360046%)" offset="0.390625"/><stop stop-opacity="1" stop-color="rgb(42.930603%, 75.779724%, 38.908386%)" offset="0.394531"/><stop stop-opacity="1" stop-color="rgb(43.534851%, 75.830078%, 38.458252%)" offset="0.398438"/><stop stop-opacity="1" stop-color="rgb(44.137573%, 75.880432%, 38.006592%)" offset="0.402344"/><stop stop-opacity="1" stop-color="rgb(44.741821%, 75.932312%, 37.556458%)" offset="0.40625"/><stop stop-opacity="1" stop-color="rgb(45.344543%, 75.982666%, 37.104797%)" offset="0.410156"/><stop stop-opacity="1" stop-color="rgb(45.948792%, 76.034546%, 36.654663%)" offset="0.414062"/><stop stop-opacity="1" stop-color="rgb(46.551514%, 76.0849%, 36.204529%)" offset="0.417969"/><stop stop-opacity="1" stop-color="rgb(47.154236%, 76.135254%, 35.754395%)" offset="0.421875"/><stop stop-opacity="1" stop-color="rgb(47.756958%, 76.185608%, 35.302734%)" offset="0.425781"/><stop stop-opacity="1" stop-color="rgb(48.361206%, 76.237488%, 34.8526%)" offset="0.429688"/><stop stop-opacity="1" stop-color="rgb(48.963928%, 76.287842%, 34.40094%)" offset="0.433594"/><stop stop-opacity="1" stop-color="rgb(49.568176%, 76.339722%, 33.950806%)" offset="0.4375"/><stop stop-opacity="1" stop-color="rgb(50.170898%, 76.390076%, 33.499146%)" offset="0.441406"/><stop stop-opacity="1" stop-color="rgb(50.775146%, 76.441956%, 33.049011%)" offset="0.445312"/><stop stop-opacity="1" stop-color="rgb(51.377869%, 76.49231%, 32.597351%)" offset="0.449219"/><stop stop-opacity="1" stop-color="rgb(51.982117%, 76.542664%, 32.147217%)" offset="0.453125"/><stop stop-opacity="1" stop-color="rgb(52.584839%, 76.593018%, 31.697083%)" offset="0.457031"/><stop stop-opacity="1" stop-color="rgb(53.189087%, 76.644897%, 31.246948%)" offset="0.460938"/><stop stop-opacity="1" stop-color="rgb(53.791809%, 76.695251%, 30.795288%)" offset="0.464844"/><stop stop-opacity="1" stop-color="rgb(54.396057%, 76.747131%, 30.345154%)" offset="0.46875"/><stop stop-opacity="1" stop-color="rgb(54.998779%, 76.797485%, 29.893494%)" offset="0.472656"/><stop stop-opacity="1" stop-color="rgb(55.603027%, 76.847839%, 29.443359%)" offset="0.476563"/><stop stop-opacity="1" stop-color="rgb(56.20575%, 76.898193%, 28.991699%)" offset="0.480469"/><stop stop-opacity="1" stop-color="rgb(56.808472%, 76.950073%, 28.541565%)" offset="0.484375"/><stop stop-opacity="1" stop-color="rgb(57.411194%, 77.000427%, 28.091431%)" offset="0.488281"/><stop stop-opacity="1" stop-color="rgb(58.015442%, 77.052307%, 27.641296%)" offset="0.492188"/><stop stop-opacity="1" stop-color="rgb(58.618164%, 77.102661%, 27.189636%)" offset="0.496094"/><stop stop-opacity="1" stop-color="rgb(59.222412%, 77.153015%, 26.739502%)" offset="0.5"/><stop stop-opacity="1" stop-color="rgb(59.825134%, 77.203369%, 26.287842%)" offset="0.503906"/><stop stop-opacity="1" stop-color="rgb(60.429382%, 77.255249%, 25.837708%)" offset="0.507812"/><stop stop-opacity="1" stop-color="rgb(61.032104%, 77.305603%, 25.386047%)" offset="0.511719"/><stop stop-opacity="1" stop-color="rgb(61.636353%, 77.357483%, 24.935913%)" offset="0.515625"/><stop stop-opacity="1" stop-color="rgb(62.239075%, 77.407837%, 24.484253%)" offset="0.519531"/><stop stop-opacity="1" stop-color="rgb(62.843323%, 77.459717%, 24.034119%)" offset="0.523438"/><stop stop-opacity="1" stop-color="rgb(63.446045%, 77.510071%, 23.583984%)" offset="0.527344"/><stop stop-opacity="1" stop-color="rgb(64.050293%, 77.560425%, 23.13385%)" offset="0.53125"/><stop stop-opacity="1" stop-color="rgb(64.620972%, 77.626038%, 22.70813%)" offset="0.535156"/><stop stop-opacity="1" stop-color="rgb(65.19165%, 77.69165%, 22.283936%)" offset="0.539062"/><stop stop-opacity="1" stop-color="rgb(65.54718%, 77.856445%, 22.03064%)" offset="0.542969"/><stop stop-opacity="1" stop-color="rgb(65.90271%, 78.02124%, 21.777344%)" offset="0.546875"/><stop stop-opacity="1" stop-color="rgb(66.25824%, 78.184509%, 21.524048%)" offset="0.550781"/><stop stop-opacity="1" stop-color="rgb(66.61377%, 78.349304%, 21.270752%)" offset="0.554687"/><stop stop-opacity="1" stop-color="rgb(66.967773%, 78.514099%, 21.017456%)" offset="0.558594"/><stop stop-opacity="1" stop-color="rgb(67.323303%, 78.678894%, 20.76416%)" offset="0.5625"/><stop stop-opacity="1" stop-color="rgb(67.678833%, 78.842163%, 20.510864%)" offset="0.566406"/><stop stop-opacity="1" stop-color="rgb(68.034363%, 79.006958%, 20.257568%)" offset="0.570312"/><stop stop-opacity="1" stop-color="rgb(68.389893%, 79.171753%, 20.004272%)" offset="0.574219"/><stop stop-opacity="1" stop-color="rgb(68.745422%, 79.336548%, 19.750977%)" offset="0.578125"/><stop stop-opacity="1" stop-color="rgb(69.100952%, 79.499817%, 19.497681%)" offset="0.582031"/><stop stop-opacity="1" stop-color="rgb(69.456482%, 79.664612%, 19.244385%)" offset="0.585938"/><stop stop-opacity="1" stop-color="rgb(69.812012%, 79.827881%, 18.991089%)" offset="0.589844"/><stop stop-opacity="1" stop-color="rgb(70.167542%, 79.992676%, 18.739319%)" offset="0.59375"/><stop stop-opacity="1" stop-color="rgb(70.521545%, 80.157471%, 18.486023%)" offset="0.597656"/><stop stop-opacity="1" stop-color="rgb(70.877075%, 80.322266%, 18.232727%)" offset="0.601562"/><stop stop-opacity="1" stop-color="rgb(71.232605%, 80.485535%, 17.979431%)" offset="0.605469"/><stop stop-opacity="1" stop-color="rgb(71.588135%, 80.65033%, 17.726135%)" offset="0.609375"/><stop stop-opacity="1" stop-color="rgb(71.943665%, 80.815125%, 17.472839%)" offset="0.613281"/><stop stop-opacity="1" stop-color="rgb(72.299194%, 80.979919%, 17.219543%)" offset="0.617188"/><stop stop-opacity="1" stop-color="rgb(72.654724%, 81.143188%, 16.966248%)" offset="0.621094"/><stop stop-opacity="1" stop-color="rgb(73.010254%, 81.307983%, 16.712952%)" offset="0.625"/><stop stop-opacity="1" stop-color="rgb(73.365784%, 81.472778%, 16.459656%)" offset="0.628906"/><stop stop-opacity="1" stop-color="rgb(73.721313%, 81.637573%, 16.20636%)" offset="0.632812"/><stop stop-opacity="1" stop-color="rgb(74.075317%, 81.800842%, 15.953064%)" offset="0.636719"/><stop stop-opacity="1" stop-color="rgb(74.430847%, 81.965637%, 15.699768%)" offset="0.640625"/><stop stop-opacity="1" stop-color="rgb(74.786377%, 82.130432%, 15.446472%)" offset="0.644531"/><stop stop-opacity="1" stop-color="rgb(75.141907%, 82.295227%, 15.194702%)" offset="0.648437"/><stop stop-opacity="1" stop-color="rgb(75.497437%, 82.458496%, 14.941406%)" offset="0.652344"/><stop stop-opacity="1" stop-color="rgb(75.852966%, 82.623291%, 14.68811%)" offset="0.65625"/><stop stop-opacity="1" stop-color="rgb(76.208496%, 82.78656%, 14.434814%)" offset="0.660156"/><stop stop-opacity="1" stop-color="rgb(76.564026%, 82.951355%, 14.181519%)" offset="0.664063"/><stop stop-opacity="1" stop-color="rgb(76.919556%, 83.11615%, 13.928223%)" offset="0.667969"/><stop stop-opacity="1" stop-color="rgb(77.275085%, 83.280945%, 13.674927%)" offset="0.671875"/><stop stop-opacity="1" stop-color="rgb(77.629089%, 83.444214%, 13.421631%)" offset="0.675781"/><stop stop-opacity="1" stop-color="rgb(77.984619%, 83.609009%, 13.168335%)" offset="0.679688"/><stop stop-opacity="1" stop-color="rgb(78.340149%, 83.773804%, 12.915039%)" offset="0.683594"/><stop stop-opacity="1" stop-color="rgb(78.695679%, 83.938599%, 12.661743%)" offset="0.6875"/><stop stop-opacity="1" stop-color="rgb(79.051208%, 84.101868%, 12.408447%)" offset="0.691406"/><stop stop-opacity="1" stop-color="rgb(79.406738%, 84.266663%, 12.155151%)" offset="0.695312"/><stop stop-opacity="1" stop-color="rgb(79.762268%, 84.431458%, 11.901855%)" offset="0.699219"/><stop stop-opacity="1" stop-color="rgb(80.117798%, 84.596252%, 11.650085%)" offset="0.703125"/><stop stop-opacity="1" stop-color="rgb(80.471802%, 84.759521%, 11.39679%)" offset="0.707031"/><stop stop-opacity="1" stop-color="rgb(80.827332%, 84.924316%, 11.143494%)" offset="0.710938"/><stop stop-opacity="1" stop-color="rgb(81.182861%, 85.089111%, 10.890198%)" offset="0.714844"/><stop stop-opacity="1" stop-color="rgb(81.538391%, 85.253906%, 10.636902%)" offset="0.71875"/><stop stop-opacity="1" stop-color="rgb(81.893921%, 85.417175%, 10.383606%)" offset="0.722656"/><stop stop-opacity="1" stop-color="rgb(82.249451%, 85.58197%, 10.13031%)" offset="0.726562"/><stop stop-opacity="1" stop-color="rgb(82.60498%, 85.745239%, 9.877014%)" offset="0.730469"/><stop stop-opacity="1" stop-color="rgb(82.96051%, 85.910034%, 9.623718%)" offset="0.734375"/><stop stop-opacity="1" stop-color="rgb(83.31604%, 86.074829%, 9.370422%)" offset="0.738281"/><stop stop-opacity="1" stop-color="rgb(83.67157%, 86.239624%, 9.117126%)" offset="0.742187"/><stop stop-opacity="1" stop-color="rgb(84.025574%, 86.402893%, 8.863831%)" offset="0.746094"/><stop stop-opacity="1" stop-color="rgb(84.381104%, 86.567688%, 8.610535%)" offset="0.75"/><stop stop-opacity="1" stop-color="rgb(84.736633%, 86.732483%, 8.357239%)" offset="0.753906"/><stop stop-opacity="1" stop-color="rgb(85.092163%, 86.897278%, 8.105469%)" offset="0.757813"/><stop stop-opacity="1" stop-color="rgb(85.447693%, 87.060547%, 7.852173%)" offset="0.761719"/><stop stop-opacity="1" stop-color="rgb(85.803223%, 87.225342%, 7.598877%)" offset="0.765625"/><stop stop-opacity="1" stop-color="rgb(86.158752%, 87.390137%, 7.345581%)" offset="0.769531"/><stop stop-opacity="1" stop-color="rgb(86.514282%, 87.554932%, 7.092285%)" offset="0.773438"/><stop stop-opacity="1" stop-color="rgb(86.869812%, 87.718201%, 6.838989%)" offset="0.777344"/><stop stop-opacity="1" stop-color="rgb(87.225342%, 87.882996%, 6.585693%)" offset="0.78125"/><stop stop-opacity="1" stop-color="rgb(87.579346%, 88.047791%, 6.332397%)" offset="0.785156"/><stop stop-opacity="1" stop-color="rgb(87.934875%, 88.212585%, 6.079102%)" offset="0.789062"/><stop stop-opacity="1" stop-color="rgb(88.290405%, 88.375854%, 5.825806%)" offset="0.792969"/><stop stop-opacity="1" stop-color="rgb(88.645935%, 88.540649%, 5.57251%)" offset="0.796875"/><stop stop-opacity="1" stop-color="rgb(89.001465%, 88.705444%, 5.319214%)" offset="0.800781"/><stop stop-opacity="1" stop-color="rgb(89.356995%, 88.870239%, 5.065918%)" offset="0.804688"/><stop stop-opacity="1" stop-color="rgb(89.712524%, 89.033508%, 4.812622%)" offset="0.808594"/><stop stop-opacity="1" stop-color="rgb(90.068054%, 89.198303%, 4.560852%)" offset="0.8125"/><stop stop-opacity="1" stop-color="rgb(90.423584%, 89.361572%, 4.307556%)" offset="0.816406"/><stop stop-opacity="1" stop-color="rgb(90.779114%, 89.526367%, 4.05426%)" offset="0.820312"/><stop stop-opacity="1" stop-color="rgb(91.133118%, 89.691162%, 3.800964%)" offset="0.824219"/><stop stop-opacity="1" stop-color="rgb(91.488647%, 89.855957%, 3.547668%)" offset="0.828125"/><stop stop-opacity="1" stop-color="rgb(91.844177%, 90.019226%, 3.294373%)" offset="0.832031"/><stop stop-opacity="1" stop-color="rgb(92.199707%, 90.184021%, 3.041077%)" offset="0.835937"/><stop stop-opacity="1" stop-color="rgb(92.555237%, 90.348816%, 2.787781%)" offset="0.839844"/><stop stop-opacity="1" stop-color="rgb(92.910767%, 90.513611%, 2.534485%)" offset="0.84375"/><stop stop-opacity="1" stop-color="rgb(93.266296%, 90.67688%, 2.281189%)" offset="0.847656"/><stop stop-opacity="1" stop-color="rgb(93.621826%, 90.841675%, 2.027893%)" offset="0.851563"/><stop stop-opacity="1" stop-color="rgb(93.97583%, 91.00647%, 1.774597%)" offset="0.855469"/><stop stop-opacity="1" stop-color="rgb(94.33136%, 91.171265%, 1.521301%)" offset="0.859375"/><stop stop-opacity="1" stop-color="rgb(94.68689%, 91.334534%, 1.268005%)" offset="0.863281"/><stop stop-opacity="1" stop-color="rgb(95.042419%, 91.499329%, 1.016235%)" offset="0.867188"/><stop stop-opacity="1" stop-color="rgb(95.397949%, 91.664124%, 0.762939%)" offset="0.871094"/><stop stop-opacity="1" stop-color="rgb(95.753479%, 91.828918%, 0.509644%)" offset="0.875"/><stop stop-opacity="1" stop-color="rgb(96.109009%, 91.992188%, 0.256348%)" offset="0.878906"/><stop stop-opacity="1" stop-color="rgb(96.464539%, 92.156982%, 0.00305176%)" offset="0.882812"/><stop stop-opacity="1" stop-color="rgb(96.466064%, 92.156982%, 0.00152588%)" offset="0.890625"/><stop stop-opacity="1" stop-color="rgb(96.469116%, 92.158508%, 0%)" offset="0.90625"/><stop stop-opacity="1" stop-color="rgb(96.469116%, 92.158508%, 0%)" offset="0.9375"/><stop stop-opacity="1" stop-color="rgb(96.469116%, 92.158508%, 0%)" offset="1"/></linearGradient></defs><g clip-path="url(#1950b6f9ba)"><g clip-path="url(#83c6ad6108)"><g clip-path="url(#73f172db88)"><g clip-path="url(#4357fa8588)"><path fill="url(#b8d947294d)" d="M 175.566406 73.757812 L 174.101562 155.246094 L 346.035156 158.339844 L 347.503906 76.851562 Z M 175.566406 73.757812 " fill-rule="nonzero"/></g></g></g></g><g clip-path="url(#3f08b1c454)"><g clip-path="url(#080d9065dd)"><g clip-path="url(#44be39ce3e)"><g clip-path="url(#68ebb88d0c)"><path fill="url(#b8d947294d)" d="M 223.726562 139.863281 L 220.949219 294.214844 L 348.417969 296.511719 L 351.199219 142.160156 Z M 223.726562 139.863281 " fill-rule="nonzero"/></g></g></g></g><g clip-path="url(#a1c66885ce)"><g clip-path="url(#3323fc9cc1)"><g clip-path="url(#d6be742567)"><g clip-path="url(#c949d8ea02)"><path fill="url(#b8d947294d)" d="M 150.804688 203.5625 L 147.886719 365.710938 L 261.292969 367.753906 L 264.210938 205.605469 Z M 150.804688 203.5625 " fill-rule="nonzero"/></g></g></g></g><g clip-path="url(#03299c9c5a)"><g clip-path="url(#febe7c50bc)"><g clip-path="url(#c00fc84e59)"><g clip-path="url(#392c059a73)"><path fill="url(#b8d947294d)" d="M 29.207031 216.960938 L 27.738281 298.453125 L 199.675781 301.546875 L 201.140625 220.054688 Z M 29.207031 216.960938 " fill-rule="nonzero"/></g></g></g></g><g clip-path="url(#0f3f46e6d7)"><g clip-path="url(#2898d54266)"><g clip-path="url(#8963a8f437)"><g clip-path="url(#66fe7aef24)"><path fill="url(#b8d947294d)" d="M 26.824219 78.792969 L 24.046875 233.144531 L 151.515625 235.4375 L 154.292969 81.085938 Z M 26.824219 78.792969 " fill-rule="nonzero"/></g></g></g></g><g clip-path="url(#112df4d17c)"><g clip-path="url(#b2ec1bb1df)"><g clip-path="url(#4138f5b2ce)"><g clip-path="url(#4d1db4094d)"><path fill="url(#b8d947294d)" d="M 113.949219 7.523438 L 111.03125 169.699219 L 224.4375 171.738281 L 227.359375 9.566406 Z M 113.949219 7.523438 " fill-rule="nonzero"/></g></g></g></g><g clip-path="url(#b08ace392e)"><g clip-path="url(#75908f2dba)"><g clip-path="url(#c630681198)"><g clip-path="url(#bf8bf0ee1d)"><path fill="url(#b8d947294d)" d="M 249.0625 44.644531 L 248.578125 71.574219 L 275.507812 72.058594 L 275.992188 45.128906 Z M 249.0625 44.644531 " fill-rule="nonzero"/></g></g></g></g><g clip-path="url(#3bd951b1c2)"><g clip-path="url(#989d133f57)"><g clip-path="url(#01711d4763)"><g clip-path="url(#d3d20697ed)"><path fill="url(#b8d947294d)" d="M 99.734375 44.644531 L 99.25 71.574219 L 126.179688 72.058594 L 126.664062 45.128906 Z M 99.734375 44.644531 " fill-rule="nonzero"/></g></g></g></g><g clip-path="url(#f2bdbb5bd8)"><g clip-path="url(#bc20f07165)"><g clip-path="url(#c8a4e133c7)"><g clip-path="url(#2750ff8e1b)"><path fill="url(#b8d947294d)" d="M 105.402344 303.242188 L 104.917969 330.175781 L 131.851562 330.660156 L 132.335938 303.726562 Z M 105.402344 303.242188 " fill-rule="nonzero"/></g></g></g></g><g clip-path="url(#f8a8527dd3)"><g clip-path="url(#a8069309a6)"><g clip-path="url(#6e263475d6)"><g clip-path="url(#49f5e9c4b6)"><path fill="url(#b8d947294d)" d="M 243.390625 303.242188 L 242.90625 330.175781 L 269.835938 330.660156 L 270.324219 303.726562 Z M 243.390625 303.242188 " fill-rule="nonzero"/></g></g></g></g><g clip-path="url(#030a6d9ce7)"><g clip-path="url(#d782bc11a9)"><g clip-path="url(#aae5585bd5)"><g clip-path="url(#e6bb247c2d)"><path fill="url(#b8d947294d)" d="M 32.859375 173.941406 L 32.375 200.875 L 59.308594 201.359375 L 59.792969 174.425781 Z M 32.859375 173.941406 " fill-rule="nonzero"/></g></g></g></g><g clip-path="url(#c94a2e2de7)"><g clip-path="url(#a8fa653a12)"><g clip-path="url(#323ed75dc2)"><g clip-path="url(#b7e8fa1156)"><path fill="url(#b8d947294d)" d="M 315.933594 173.941406 L 315.449219 200.875 L 342.382812 201.359375 L 342.867188 174.425781 Z M 315.933594 173.941406 " fill-rule="nonzero"/></g></g></g></g><g clip-path="url(#cf35788fbf)"><g clip-path="url(#d7a91028ff)"><path fill="url(#b48b59cc99)" d="M 47.886719 17.222656 L 47.886719 295.910156 L 326.859375 295.910156 L 326.859375 17.222656 Z M 47.886719 17.222656 " fill-rule="nonzero"/></g></g><path fill="#5e5f5f" d="M 223.339844 308.878906 C 202.261719 312.820312 180.6875 313.476562 158.375 308.878906 C 155.09375 308.222656 152.304688 311.589844 152.304688 314.953125 C 152.304688 318.320312 155.011719 320.617188 158.375 321.027344 C 180.359375 323.574219 202.015625 323.65625 223.339844 321.027344 C 226.621094 320.617188 229.410156 318.320312 229.410156 314.953125 C 229.328125 311.589844 226.539062 308.222656 223.339844 308.878906 Z M 223.339844 308.878906 " fill-opacity="1" fill-rule="evenodd"/><path fill="#5e5f5f" d="M 214.972656 327.101562 C 194.304688 328.910156 187.414062 329.238281 164.609375 326.9375 C 161.328125 326.609375 158.539062 329.648438 158.539062 333.011719 C 158.539062 336.378906 161.246094 338.925781 164.609375 339.089844 C 187.578125 339.992188 194.632812 340.402344 214.972656 339.253906 C 218.253906 339.089844 221.042969 336.542969 221.042969 333.175781 C 220.960938 329.8125 218.253906 326.773438 214.972656 327.101562 Z M 214.972656 327.101562 " fill-opacity="1" fill-rule="evenodd"/><path fill="#5e5f5f" d="M 179.703125 343.519531 C 180.359375 357.722656 201.359375 354.519531 201.851562 343.683594 C 199.144531 344.339844 195.863281 344.671875 191.925781 344.671875 C 187.988281 344.753906 182.574219 344.257812 179.703125 343.519531 Z M 179.703125 343.519531 " fill-opacity="1" fill-rule="evenodd"/></svg>